<mxfile host="app.diagrams.net" modified="2022-06-06T11:28:25.411Z" agent="5.0 (Windows NT 10.0; Win64; x64) AppleWebKit/537.36 (KHTML, like Gecko) Chrome/102.0.0.0 Safari/537.36" etag="Ft3TqVeL71jDsOrwYclT" version="19.0.0" type="github">
  <diagram id="RBpnNK82z8dt__gZQBSC" name="第 1 页">
    <mxGraphModel dx="1038" dy="579" grid="1" gridSize="10" guides="1" tooltips="1" connect="1" arrows="1" fold="1" page="1" pageScale="1" pageWidth="827" pageHeight="1169" math="0" shadow="0">
      <root>
        <mxCell id="0" />
        <mxCell id="1" parent="0" />
        <mxCell id="eNQJ0IXa9BNPaOZvwaTt-1" value="" style="shape=image;verticalLabelPosition=bottom;labelBackgroundColor=default;verticalAlign=top;aspect=fixed;imageAspect=0;image=data:image/jpeg,/9j/4AAQSkZJRgABAQAAAQABAAD/4gIoSUNDX1BST0ZJTEUAAQEAAAIYAAAAAAQwAABtbnRyUkdCIFhZWiAAAAAAAAAAAAAAAABhY3NwAAAAAAAAAAAAAAAAAAAAAAAAAAAAAAAAAAAAAQAA9tYAAQAAAADTLQAAAAAAAAAAAAAAAAAAAAAAAAAAAAAAAAAAAAAAAAAAAAAAAAAAAAAAAAAAAAAAAAAAAAlkZXNjAAAA8AAAAHRyWFlaAAABZAAAABRnWFlaAAABeAAAABRiWFlaAAABjAAAABRyVFJDAAABoAAAAChnVFJDAAABoAAAAChiVFJDAAABoAAAACh3dHB0AAAByAAAABRjcHJ0AAAB3AAAADxtbHVjAAAAAAAAAAEAAAAMZW5VUwAAAFgAAAAcAHMAUgBHAEIAAAAAAAAAAAAAAAAAAAAAAAAAAAAAAAAAAAAAAAAAAAAAAAAAAAAAAAAAAAAAAAAAAAAAAAAAAAAAAAAAAAAAAAAAAAAAAAAAAAAAAAAAAFhZWiAAAAAAAABvogAAOPUAAAOQWFlaIAAAAAAAAGKZAAC3hQAAGNpYWVogAAAAAAAAJKAAAA+EAAC2z3BhcmEAAAAAAAQAAAACZmYAAPKnAAANWQAAE9AAAApbAAAAAAAAAABYWVogAAAAAAAA9tYAAQAAAADTLW1sdWMAAAAAAAAAAQAAAAxlblVTAAAAIAAAABwARwBvAG8AZwBsAGUAIABJAG4AYwAuACAAMgAwADEANv/bAEMAAwICAgICAwICAgMDAwMEBgQEBAQECAYGBQYJCAoKCQgJCQoMDwwKCw4LCQkNEQ0ODxAQERAKDBITEhATDxAQEP/bAEMBAwMDBAMECAQECBALCQsQEBAQEBAQEBAQEBAQEBAQEBAQEBAQEBAQEBAQEBAQEBAQEBAQEBAQEBAQEBAQEBAQEP/AABEIAjsC+gMBIgACEQEDEQH/xAAdAAEBAAMBAQEBAQAAAAAAAAAABwUGCAQDCQIB/8QAYBAAAAYBAgEFCQ0EBgUJBgUFAAECAwQFBgcREggTIVeWFBcYIjd2ldPVFRYxOEFWWHeUtLW21CMyU6U1NlFUl9IJJDNCYSUmNGJncabi40NSgZGSoURFdYKncnOjsrP/xAAcAQEAAQUBAQAAAAAAAAAAAAAABAIDBQYHAQj/xABGEQACAQEDBA0JBwUAAgMBAAAAAQIDBAUREiExUQYTFBUWMkFSU2FxgZEXNVSSobHR0vAiMzRyssHhB2KCouJCoyNz8Tb/2gAMAwEAAhEDEQA/AP1TAAAAAAAAAAAAAAAAAAAAAAAAAAAAAAAAAAAAAAAAAAAAAAAAAAAAAAAAAAAAAAAAAAEB1/xbGMu1awGtyvHKu6iN45kj6I9jDbktpcKTUESyS4RkSiJSi3+HZR/2i/CK6veWfBfNfJfvdMMXfUnC76sovB4FurxGaT3kdGOqLCvQET1Yd5HRjqiwr0BE9WMZbcpPk90Vn7jW+uGCxZyZK4brC7+LxsPIJXGl0iX+y24FEfHwlxbJ+EyI9ih6l4BZU9fkdRl1ZZ09pK7ii2de+UuEp7iNJJU+1xNo3WXARqURGsyRvxGRHy2U7bFJyclj2kL7R4O8jox1RYV6AierDvI6MdUWFegInqxsVfktFa2DlZWWTUp9qIxOVzW6kGw8ayaWlZFwqJRtr+Az+D/iW+lW3KT5PdFZ+41vrhgsWcmSuG6wu/i8bDyCVxpdIl/stuBRHx8JcWyfhMiPyNS2TeEXJvvH2mZPvI6MdUWFegInqw7yOjHVFhXoCJ6sfWXq5p0xiTGdQMmavaOVJTDjS8eZdue6HjWaOBpEJLq3DJRGRkkj22PfbYxjIuu2Ey5LURqj1DSt5aW0m7pzkLaCMz2LiWqESUl09JqMiL4TMiFSnbXnTn7R9o93eR0Y6osK9ARPVh3kdGOqLCvQET1Y81xrnpxRWR1M2fcuyW/+kph47ZS0wy4zRvJWywtMYtyMyN00EafGLxekZqz1Ew+qq7K4etHJEapW01KODEfmL5xwyShDbbCFrdUalEXC2Sj36Ntx46lsWGLln7R9ox3eR0Y6osK9ARPVjUbPR/SVvVrG61vS7EUxH8cu33Y5UkYm3HG5NYSFqTwbGpJOOERn0kS1bfCY2qh1nwrIbqJQRIeXw5c9SkRztcMuK1lxaUKWaSelRW2uLhSoyI1bnse24+lt5Z8W817/AO91Iu0q1qp1MKkpL7MtLfNYxaHeR0Y6osK9ARPVh3kdGOqLCvQET1Y3UBF3XaOe/FnmLNK7yOjHVFhXoCJ6sO8jox1RYV6AierGw5LlWMYZUO5BmGR1dFVsKSl2dZTG4sds1KJKSU44ZJIzMyItz6TMiGl1PKT5Pd7Z+41RrhgsqcqSiG0wi/i8b7yyTwJaI1/td+NJFwcRcW6fhIyK7CpbKiyoOTXVie/aZk+8jox1RYV6AierDvI6MdUWFegInqx/mSaxYXi16/jdhGyqZPittuvpqMRtrRtpLhGaCU7EjOtpUZEZ8Jq32+TpCp1hwu3akyEsZRXR4ZIN9+5xK2q2UEtXCR85LjNpMiP94yPZJdKti6Qy7bhlYyw7x9o/3vI6MdUWFegInqw7yOjHVFhXoCJ6sfCi1w03yJUkoVnaRkRo5yiesqGfXsyGiVw8cdySy2iQW5ltzRr33Lb4SHpyTV3DcXmx6+c1kk2RKiomoRT4taWvCyszJClnDjuk3xGlWxL2M9j6OgMu25WTjLHvH2j+e8jox1RYV6AierGo2ej+krerWN1rel2IpiP45dvuxypIxNuONyawkLUng2NSSccIjPpIlq2+ExRcPzigzqDIn0BWiERHzjPtWVRLrZDTnClWymZTTbhbpWkyPh2Mj6DGItvLPi3mvf8A3upFyjaLTGo4zlLHCXK+awmx3kdGOqLCvQET1Yd5HRjqiwr0BE9WN1GNucip8eOIdzLOK3NfTGaeU0s2icV+6lbhEaW+I9kpNZpJSlJSW6lERx1abRJ4KcvFnmLNc7yOjHVFhXoCJ6sO8jox1RYV6AierHkqNdNP7yzhVUFvK0qsnijxZUrDriNCdWe/DtLdipY2Vt4quPhVuWxnuQ/jK+UToNg85+qyzWPDq2wiyERZEJ25Y7pYdWokkTjJKNaCLiIzNSSJJbqUZERmL2VbnLJ+3j3nv2j3d5HRjqiwr0BE9WHeR0Y6osK9ARPVj+Y+t+kM+nkZBT6j0FvWRFm1ImVM1E9lhwkGskOLYNZIWpJHwpVsaj2JJGZkR/7R6yaf5BFkSo0+zhdzLaQtm3o51Y+rnf3DbZlstuOJPp8ZCTT0HufQYpc7ali3L2j7R/veR0Y6osK9ARPVh3kdGOqLCvQET1Y/jINZMLxu6lY/NiZbMmQjQUj3Jw64s2W1KSSySb0SK43xcKknw8W5EZbkW42LF8op8xpWb+iXLVEfU4gilwX4byFoWaFpWy+hDraiUkyMlJI+geSq2uMcuUpJa8WM5gO8jox1RYV6AierHu0uwjC8N5QNJ70MRpaPuzDb7uj3Nr2o3PcE2o4ePm0lxbcStt/g4j/tGzjxYl8YHHPM3IfvtMMvsctFad504ym2vtcr5rK6TeWi8AADqBOAAAAAAAAAAAAAAAAAAAAAAAAAAAAAAAAAAAAAAAAAAAAAAAAAAAAAAAAAAAAAAAAAAAAAAAAAAAAAAAAAAAAAAAAAAAAAAAAAAAAAAAAAAAAAAAAAACK6veWfBfNfJfvdMLUIrq95Z8F818l+90wxV+ebq3YW6vEZxpPhawV1pjERuJrdGaTldoqE3Cbw5EciUU5STiFL/wBY6UGZl3V0Gg1GXjcAp2KTLetx+HQXNvl8HLpeRPINE6XWpnk1KN1zjkohodgOGTDK3CShBmkkp6UGozOzZRiOJ5vVKoc0xipv6xa0uqhWkJqUwa0/uqNtxJp3L5D26B48a0408wtlqNh2B47RMx3VvtN1lWxFS26tPCtaSbSREpSSJJmXSZFsfQOaVLdCrDCUEn1Lt0vHrzrDvIbkmjmip0vj0jNZmqcdeuIkKoxu3es761lzHIjjTz7jvuah8nGkvKI0N802uOhCXujYj4FY2fC1hr7PGIrcPW6K0WV2i4TUNvDkRyJRTlJOIUv/AFjpQZmXdXQaDUZeNwDpSLoZonCvk5TC0ewiPdIknMTYtY9ERKTINXEbpOk3xkviMz4t99+ncbDlGI4nm9UqhzTGKm/rFrS6qFaQmpTBrT+6o23EmncvkPboF13lHKxayl1rHDNhmz/A9yyLYum0cp6TDchl5HHyV7L3J7pWpVy7NltaZLzbzxwiVC4uBvi2QRkRcHEndXT/AFUYZm9LqvcvK1n1BtI7R0yZnDCozU62s3+EnUN1pGbRGRJUbRoUlK1KNXi7pqVbpNpXTUkjGqfTPFINRLQ63Ir41NGajPJdJKXUraSgkqJZJSSiMvGJJb77EMNH5OPJ6ivtyoug+nbLzKycbcbxeClSFEe5KIya3IyPpIxZ3VSbl1/2p8uPK83YeZSIXnq1zsyZjtvWUiM4cmJCkzJByjQhpVlHSch3hI47SnXkNtuPnwq6E84pW+331PxXIS05yqhP3fKQd1BTIqquoRaNz2lrJzgkoTXz1JaJHjmpLKi32JSV78B9PR8YxuJGmw4uPVjMey37tabiNpRJ3TwnziSLZe6ejp36Oga5P0P0WtIZ11npBhMyIqW7PNh/H4jjZynP9o9wqbMucVsXEv4T26TFyF4QUo4rMsNT5cfrxzHqmcT6P4jdMao0Myuxm5xnuO+XFds6LAW2XmGTYUXC4v3pREpQpS0pWpbydiVvzZbEsu2bXo1nxUt9/wDmvf8A3upHgj8nHk9RX25UXQfTtl5lZONuN4vBSpCiPclEZNbkZH0kY99qRFrPipEWxFi9/wDe6kV2i1wtlZSgsMIyXJzWJSUnmNU1wvsrxS4qZGPWExCcpiP4vHbb5xaGLN5SFRZHCnckcKSf3XsXwJIz+DbDxruph6mWNLkuf3cTKaqaxDximRbyTOzgdxtHzjkIjUiShTpvc5JU2o0Gk/2qOHovACDC0qMFBx5GsfpdxTlZjlJNkjKsDiPYbmmc5BnipNNNySqpbBqfIq5qZKDe4WrDiiV7yT4y5hfNN8CVGbZ8PEWIpYmrs22yxqUnWg4yMihP2PukvCkxEttsw1rVNNgyeIibTufcv+4SdvH4h2INQyTRzSLMrj3xZhpXh97a8KEd3WVHFlSOFH7pc44g1bF8hb9AlU7wjFtSgsHrWLWjszZs2oqUzSJ9XJz1ec3uKag5DjsUyjp7pq40JXdZJgJXzaimxntiInS34SQrfo36DIYjDIWS45pvXKuM7ze4eKPQnVNvqgR2CN7m0JQ25FhN8ST41Icbf53ZKEq6DMlioZJpFpRmRRyzDTDEr0oZuqj+6VLGlcybhkpw0c4g+E1GRGrb4TItx8KXRLRjGykljukWF1RTWyaklCoIjHPoI9ySvgbLiLf5DFtWmlkZL6uRcnXp+sDzKRzXhVLY21XanAjLUqsi85IJzhbSppuPCbN5hSj4ZLJqjvETrJrQZoNO+/QNU5SGN28nKXLhyouslYiUEAozlphjc6FBUriNTEZ33tT0LRspJman0K3Vsal7ESO2MhwfCsthNVuV4fSXURhJJaYsK9mS2giUlRElLiTIiJTaD6PlQk/kIa7baA6EX1jIuLzRTArGfLXzj8qXjcN551X/ALy1qbNSj/4mYlUbzpxqKpNPszPVy/XeVKaxxZKeRxj9tQMZXGlR7+nh93NuRqh/G01lfsplsjfZM6asUtZqQpKiJokltuZGZ8aq9beWfFvNe/8AvdSPZiOlOl2n8t+fgem2K43Jktk0+9UU8eG46gj3JKlNISai36dj6B47byz4t5r3/wB7qRFnWjaLTKpHQ4y/SyhvF4m6jTtQ7ZumdoJSXrEpLtgbCG4krm0rZJpbr3ONqSpDiSbaVtuRKI9uFaNzUNxGLv8AFsYyuKcHKMcq7iMaHGjZnw25CDQ4nhWnhWRlspPQZfKXQYhU5RjJOWg8Rxbp1iWDY/nWLZCjT7PYE+Nax3FTpeM4S0zxuKZQZrehK90CSZzWN1c84s+Px+c2WMjrC0mtlx83rXMvrkTbi54blGSKi0ziFzFIS0kiyCrSy8ZoIy2M+dL5FmjxekWOTjyeYr7cmNoPp2y8ysnG3G8XgpUhRHuSiMmtyMj6dxsdfp1p9U36sqq8Fx6HdrilBVZR6thuUcYiSRMm6lJL5siSkuHfbxS6OghmJXpDbFUWOK7v36/4LmXnxIFT0CqHk/08eO1nNba3MadHei5HePI494T5uuOtSJcxqOwaWucSjni4TNJmtJqXxYfFaudaVUjI4cOQiJHskrkJlNHGfY52bJWjiZc2c4VJfaUlZJ4VpWSkmZdI6MqNKNLcfZdj0OmuK1rT8kpjqIlNHZS5IL4HVElBEay2Lxj6ej4R77rB8LySfEtcixCktJsB1t+JJm17T7sdxvi4FtrWkzQpPGvYyMjLiVt8Jixu+OL0vF44/T/c8yzhPW/Erd7VC/nzsdusn7ouo8RqyvcDbkOONc22k22V+9KYhTaVcSUKQ+oz235tZmal9MckWptqbTF2FaOX8bmrKUhmrsqRNYzBb55aklGR7nQFLbUlRK4jZItzMiSjbgLa5HJx5PUp9yVK0H07eeeWbjjjmLwVKWoz3NRmbW5mZ9JmNjxDTvT/AE+ZkRsBwbHsaZmKJchunrGIaXlEWxGsmkpJRkXwGYrtV4Uq9mVGKeKw5Fye7uEpJrA2EeLEvjA455m5D99ph7R4sS+MDjnmbkP32mF3Y150pf5fpZ7R46LwAAOrE4AAAAAAAAAAAAAAAAAAAAAAAAAAAAAAAAAAAAAAAAAAAAAAAAAAAAAAAAAAAAAAAAAAAAAAAAAAAAAAAAAAAAAAAAAAAAAAAAAAAAAAAAAAAAAAAAAAIrq95Z8F818l+90wtQ17LdOtPs+7k9/eC49kfcHOdy+61YxM5jj4ePm+dSrh4uBG+22/CW/wEItusu7bPOz44ZSwx0/ApnHKjgTUBtPg7cn7qL097MQvVB4O3J+6i9PezEL1Q1DgWun/ANf+iPufrNWAbT4O3J+6i9PezEL1QeDtyfuovT3sxC9UHAtdP/r/ANDc/WasA4I1j5S+geCcv2k0/i6R6eJ0txs14xlCyxiBzKpz6kk/LUvmvFKI6TKFdBmXNSSLfnCH6QeDtyfuovT3sxC9UHAtdP8A6/8AQ3P1mrANp8Hbk/dRenvZiF6oPB25P3UXp72YheqDgWun/wBf+hufrNWGlW3lnxbzXv8A73UiveDtyfuovT3sxC9UHg7cn7qL097MQvVC5S2HKnLHb+Rri601zus93P1mrANp8Hbk/dRenvZiF6oPB25P3UXp72YheqFvgWun/wBf+jzc/WasA2nwduT91F6e9mIXqg8Hbk/dRenvZiF6oOBa6f8A1/6G5+s1YBwRrHyl9A8E5ftJp/F0j08TpbjZrxjKFljEDmVTn1JJ+WpfNeKUR0mUK6DMuakkW/OEP0g8Hbk/dRenvZiF6oOBa6f/AF/6G5+s1YBtPg7cn7qL097MQvVB4O3J+6i9PezEL1QcC10/+v8A0Nz9Zqw0q28s+Lea9/8Ae6kV7wduT91F6e9mIXqg8Hbk/dRenvZiF6oXKWw5U5Y7fyNcXWmud1nu5+s1YBtPg7cn7qL097MQvVB4O3J+6i9PezEL1Qt8C10/+v8A0ebn6zVgG0+DtyfuovT3sxC9UHg7cn7qL097MQvVBwLXT/6/9Dc/WasA4I1j5S+geCcv2k0/i6R6eJ0txs14xlCyxiBzKpz6kk/LUvmvFKI6TKFdBmXNSSLfnCH6QeDtyfuovT3sxC9UHAtdP/r/ANDc/WasA2nwduT91F6e9mIXqg8Hbk/dRenvZiF6oOBa6f8A1/6G5+s1YeLEvjA455m5D99phu3g7cn7qL097MQvVDMYtpTpdgtg5bYTpti2PTnmTjOSqqnjxHVtGpKjbNbaEmaTUhJ8O+26SP5CE+7NjG91qjadtysnHNk4aU1pynrK4UciWOJtQAA2ovgAAAAAAAAAAAAAAAAAAAAAAAAAAAAAAAAAAAAAAAAAAAAAAAAAAAAAAAAAAAAAAAAAAAAAAAAAAAAAAAAAAAAAAAAAAAAAAAAAAAAAAAAAAAAAAAAAAAAAAAAAAAAQvI8AwMuULhmIlhND7hWuB5y7Pq/c1nuSWt60xxbynWeHgcNajNSjUR8RmZnuYuLLLMdlEeO0hpppJIQhCSSlKSLYiIi6CIi+QS3I/jT6efV/mX4jjgqoAAAAAAAAAAAAAAACF5HgGBlyhcMxEsJofcK1wPOXZ9X7ms9yS1vWmOLeU6zw8DhrUZqUaiPiMzM9zFxZZZjsojx2kNNNJJCEISSUpSRbEREXQREXyCW5H8afTz6v8y/EccFVAAAAAAAAAAAAAAAAQvI8AwMuULhmIlhND7hWuB5y7Pq/c1nuSWt60xxbynWeHgcNajNSjUR8RmZnuYuLLLMdlEeO0hpppJIQhCSSlKSLYiIi6CIi+QS3I/jT6efV/mX4jjgqoAAAAAAAAAAAAAAAAAAAAAAAAAAAAAAAAAAAAAAAAAAAAAAAAAAAAAAAAAAAAAAAAAAAAAAAAAAAAAAAAAAAAAAAAAAAAAAAAAAAAAAAAAAAAAAAAAAAAAAAAAAAAAAAAAAAAAAAACL6p3qMI14wHPLegyibRx8Ryiofk0eNWFypmXImUbrCHG4LLziCWiJIMlKSSf2ZlvuZEeT8JbTr5uaq/wCE+VezhVQAEq8JbTr5uaq/4T5V7ODwltOvm5qr/hPlXs4VUABKvCW06+bmqv8AhPlXs4PCW06+bmqv+E+VezhVQAEq8JbTr5uaq/4T5V7ODwltOvm5qr/hPlXs4VUABKvCW06+bmqv+E+Vezg8JbTr5uaq/wCE+VezhVQAHL9/yg8Dd5SWC3KaDUoo8XB8sjLQrTLJEvmt2fQKSaGTgc6tBEyviWlJoQZtks0m42SqX4S2nXzc1V/wnyr2cGR/Gn08+r/MvxHHBVQBKvCW06+bmqv+E+Vezg8JbTr5uaq/4T5V7OFVAASrwltOvm5qr/hPlXs4PCW06+bmqv8AhPlXs4VUABKvCW06+bmqv+E+Vezg8JbTr5uaq/4T5V7OFVAASrwltOvm5qr/AIT5V7ODwltOvm5qr/hPlXs4VUABDKPMIepfKNxTI8ZxzMmKuhwnJoU+Zd4fbUrSJEufRrjtpVPjMk6pSYkg9kcWxNnvtuW9zAAAAAAAAAAAAAAAAAAAAAAAAAAAAAAAAAAAAAAAAAAAAAAAAAAAAAAAAAAAAAAAAAAAAAAAAAAAAAAAAAAAAAAAAAAAAAAAAAAAAAAAAAAAAAAAAAAAAAAAAAAAAAAAAAAAAAAAAAAAAAAAAAAAAAAAAAAAABKsj+NPp59X+ZfiOOCqiVZH8afTz6v8y/EccFVAAAAAAAAAAAAAAAAAAAAAAAAAAAAAAAAAAAAAAAAAAAAAAAAAAAAAAAAAcxcmrk1cnLJuTlpXkmSaAab21vbYTRzp8+disB+TLkuwGVuvOuraNTji1qUpSlGZmZmZmZmOnRKuSd8VjRv6v8e/DmAA8E7ksfRp0q7G13qQ8E7ksfRp0q7G13qRVQAEq8E7ksfRp0q7G13qQ8E7ksfRp0q7G13qRVQAEs5KjzsjkvaPPvurcdcwHH1rWtRmpSjrmDMzM/hMzFTEq5J3xWNG/q/x78OYFVAAAAAAAAAAAAAAAAAAAAAAAAAAAAAAAAAAAAAAAAAAAAAAAAABqWqebztPcMdyWspWLaYdhW10eI/MOI0t2ZOYiJNbqW3DQlJvkozJCj2Ttt0jbRMuUV5NWfOrFfx6AKoJSkkymbwi2jF98/W3qqwftxL9lB3z9beqrB+3Ev2UPcAz299DV7TC7vrazw98/W3qqwftxL9lB3z9beqrB+3Ev2UPcAb30NXtG762s8PfP1t6qsH7cS/ZQd8/W3qqwftxL9lD3AG99DV7Ru+trPD3z9beqrB+3Ev2UHfP1t6qsH7cS/ZQ9wBvfQ1e0bvrazw98/W3qqwftxL9lB3z9beqrB+3Ev2UPcAb30NXtG762s8PfP1t6qsH7cS/ZQd8/W3qqwftxL9lD3AG99DV7Ru+trPD3z9beqrB+3Ev2UHfP1t6qsH7cS/ZQ9wBvfQ1e0bvrazw98/W3qqwftxL9lB3z9beqrB+3Ev2UPcAb30NXtG762s8PfP1t6qsH7cS/ZQd8/W3qqwftxL9lD3AG99DV7Ru+trPD3z9beqrB+3Ev2UHfP1t6qsH7cS/ZQ9wBvfQ1e0bvrazw98/W3qqwftxL9lB3z9beqrB+3Ev2UPcAb30NXtG762s8PfP1t6qsH7cS/ZQ8CdaNZFZbAw0tJsM7tsa6bZtOe/eVzSWozsZtwlH7l7kozlt7ERGWxL3MtiI86NYa8vGLeaORffKcYPZKldd017ZZ+PBYrHPyolWK01K9eNOehm1e/PXjquwLtzM9kh789eOq7Au3Mz2SNqAcN4eXvrj6psm5aZqvvz146rsC7czPZIe/PXjquwLtzM9kjagDh5e+uPqjctMlVkxrxYap49qZ7wsCb9wcfuaLuL35TD57u+TWvc7znuX4vB7m8PDwnxc9vung2Vtfvz146rsC7czPZI2oA4eXvrj6o3LTNV9+evHVdgXbmZ7JD3568dV2BduZnskbUAcPL31x9Ublpmq+/PXjquwLtzM9kjA2msmstRlNZiMnSfC1TLWvm2LK0ZvKNpLUVyM24SjOrIyUZy2+EiIyMiXuZbFvSBMc28tuGeauR/e6cbFsU2U3he98UbFaWsiWVjgsHmi3p7URbbSjQoSqQ0oyffP1t6qsH7cS/ZQd8/W3qqwftxL9lD3AO2b30NXtNb3fW1nh75+tvVVg/biX7KDvn629VWD9uJfsoe4A3voavaN31tZgk60ayKy2BhpaTYZ3bY102zac9+8rmktRnYzbhKP3L3JRnLb2IiMtiXuZbER7B789eOq7Au3Mz2SNVa8vGLeaORffKcVQcc2Z7Jbdcl7SsdkaUEovOsdKNhu+CtFBVJ6c5qvvz146rsC7czPZIe/PXjquwLtzM9kjagGqcPL31x9Um7lpmq+/PXjquwLtzM9kh789eOq7Au3Mz2SNqAOHl764+qNy0zVffnrx1XYF25meyQ9+evHVdgXbmZ7JG1AHDy99cfVG5aZqvvz146rsC7czPZIe/PXjquwLtzM9kjagDh5e+uPqjctM1zFtRs8l6gwsEzbB6Cp90qafbRZVVkT1h/0R+G0ttaHYUfh37tSZKJSv3DIy6SMUkSpXxgcR8zcl++0oqo6nsct9a87spWqvxpZWOGbRJr3Ig1oqE3FAAAZstgAAAAAAAAAAAAAABKuSd8VjRv6v8e/DmBVRKuSd8VjRv6v8e/DmABVQAAAAAAEq5J3xWNG/q/x78OYFVEq5J3xWNG/q/x78OYFVAAAAAAAAAAByzbadafZdq7qlZZXguPXUtvI4bCJFjWMSXEtlR1hkglOJMySRqUe3wbqP+0QLyt8btoOvNYrFLN1lE55CxOpgHL/AHkdGOqLCvQET1Yd5HRjqiwr0BE9WNc4ZWfon4os7oWo6gAcv95HRjqiwr0BE9WHeR0Y6osK9ARPVhwys/RPxQ3QtR1AA5f7yOjHVFhXoCJ6sO8jox1RYV6AierDhlZ+ifihuhajqABy/wB5HRjqiwr0BE9WHeR0Y6osK9ARPVhwys/RPxQ3QtR1AA5f7yOjHVFhXoCJ6sbtyZaSlxxOpVNj1RCq6+PmSOZiQo6GGW+Kkq1K4UIIklupRmexdJmZ/KMndV/0r1rOjCDTSxz9qX7lcKqm8MC1AADPl4AAAAAAAAAAAAAAAJlyivJqz51Yr+PQBTRMuUV5NWfOrFfx6AK6XHXaUVOI+w+IAA2o1oAAAAAAAAAAAAAAAAAAAAAAAAAAAAAAAAAAAAANYa8vGLeaORffKcbONYa8vGLeaORffKcats28wWr8v7on3Z+Lh9cjKoAAPls3QCCd7Km8JLuH30ag9xe973w9xe/+97l7t7v24uY7r5vm9vF5nh5rh6ODboF7GM97NJ75/fj3F/yx3B7md084v/o3Oc5wcG/D+/077b/Jvt0CTZ7RKz5WDaxWGYpaxOUsFt8jbv28vmxtToXBqBNgScmsctdmY89DOydjohorO7nTQat22Uq7jbShRcfOJIt1bGyWaUGYtZPlFrmJ925KhMTMqvJPdLGX4D8vm2YD9Scpso7hpUiObrUVzgXwum+Zmvar1vJ80uqr48hi196tz3RctigyMntJFYmYtw3TeTXuSFRErJwzcIya8VfjJ2MiMetOh+mqcmTlRVFgchEv3QRBVdTjqkS+I1d0JrTe7jS7xma+cJni4zNe/F4wytS8rPOTaTzrDR7ON8Y/2FCg0b2AAMCXQJjm3ltwzzVyP73TinCY5t5bcM81cj+9043HYB//AEdm/wAv0SIF5/hJ/XKjYQAB9OGlgAAAaw15eMW80ci++U4qglbXl4xbzRyL75TiqD5w/qV5/n+WPuNwuj8JHv8AeBydq5P1Aa5VMBjDGWchQxjz8tEF+qlTmK2xLmm46y52wTHjPHzxGchmLxIadPnSUlfGjrEalk2nca+tCyCpyO1xq4TDkQ0WFS1EN1JPKjmtw0yWHW1r2jNoI1oURJ3Lb90y0+wWmNmqOUtDTWfRn1/wZCccpEizVV/SYhnVHYXSHu6668enxZtepRymihspROSTbe3S6SkcBmhDhLWSPGRsIVTv39BjVDaxK973v4xaPzItZQQmseSlLts4zIIob8Mp9UnmjWrhbn7qQy4hbai3Svs1Gk+KMY3Z41GXZJK5WldjYPTnJU+Xsvj4XJD5rWpHwoJBnwoQo0IJCSIi16h5PWPUE6PYMZfksp1dqu5tzlHCX7tyTUpTfdH+rEbbbalqUluMbCN1KNSVcSuLJ2e8qFODjJcuOjTm6tD0pZ/iqHBtmB1JyCXidZJv5mo8TFJs+BVKvrevRGKJAbXObaTKS5NJxpJ80t9BLcaUlSWiUfBwEkapyZ84prPMXsexnlJ98iM+d9MlwO66SR3IabFBMyd6+M04nnUuuK8dRoVvugiIiIXrH9PcNxeAdXS0bTUPnGnEMOuLfQ0bSuJpLZOGom0tn0oQnZKNvFIh6qPFKehI1RWeee7pmSUPvpSp1s5T5vOoSoiIyQazLo/sSnfcy3ELdlFUJUsnFvQ8I6sNTebkwkVZLxxMwAAMWXCYZvl/vL1twy096+QX3O4rkcfuakhd1Po3l06uNSOItkFw7Ge/wqSXyjYO/wC/9iuqvZv/ANQFfGBxHzNyX77SiqjvGwzzHQ/y/XIxVo+9f1yEq7/v/Yrqr2b/APUDv+/9iuqvZv8A9QVUBtBZJV3/AH/sV1V7N/8AqB3/AH/sV1V7N/8AqCqgAJSevm5GRaL6rFv8pY38H/8AkHHPJ9/0lWpkzW2z5O2pul13nMyvuJNZGvcZqubsUtNvc3zs6AkzbTw7kbq21oS0ST8Rfwj9GzIlEZHv09HQew1HTTSLTPR2lcoNMsKrMehvuc9J7la/bSnen9o+8rdx9fSfjuKUrbo3AG3gJfL5LPJjnynp8/k5aXyZMlxTzzz2IV61uLUe6lKUbW5mZmZmZ9JmY+Xgnclj6NOlXY2u9SAKqAlXgnclj6NOlXY2u9SHgnclj6NOlXY2u9SAKqJVyTvisaN/V/j34cwHgnclj6NOlXY2u9SKbXV1fUV8apqYMeFBhMojxo0dpLbTDSEklDaEJIiSlKSIiIi2IiIiAHoAAAAAAASrknfFY0b+r/Hvw5gVUSx7kqcl6Q6t9/k3aWuOuKNa1rw6uNSlGe5mZmz0mZj+fBO5LH0adKuxtd6kAVUBKvBO5LH0adKuxtd6kPBO5LH0adKuxtd6kAVUBKvBO5LH0adKuxtd6kU+JEiwIrMGDGajRozaWWWWUEhDaElslKUl0ERERERF0ERAD7DnqJ5UNVfOiJ+A1Q6FHPUTyoaq+dET8Bqhrmyrzc+1FmvxDNAAherue5hT6q4xjtRkUqHVSlmzJiowG9nJfUtpZmn3RiOpYTukugySo2DSbityLYua0KLryyVqb5eTsIaWJdAHJWI5QvEm8jyGlya+SVXjM+zblZVe5WqBKPnEKNSDtIqmCajpMkoeZN5bpKSpSEkew8DlhIzJtmY1nkp20lYe3YwHKnUi5TTsPMvu8bTsuI6pt+RzDbm7hMmlamVnzRkkyObva8c7aXZ+2JVkHYgDljV7MtY5cbInaNWptQxAxGFPXGxh7HjjwJDrT6nCkPWKUzFKLgT4zGx7JMyIlGNlxGz1mfYyykfstR2LD3vNS6o8nTi5yUSDW4k1xVV6TZ32Ii2lbp4uHo24hbdgkoKbnHsxz8nxGQdBAOU2LrN5EU8ub1u1JajuOtw2pcifjqKtxpR8RNpkFUHEOXufARpM2FObNd18Xil0bgDWUM4VSNZrIdfvkwmisHHiZJxT3D4xr5gia4v7ebIkb78PRsLVeyuzrFyT8fgeOOBnx7uT9/SOqHnk1+BVQ8I1jTPWbTXTvJdSqTMck9z5r+VMSm2u45Du7R0tYklbtoUXwoUW2+/R/wBw2LYd+On+R/qiXbPxjpIBKvCj0J+fX8smeqDwo9Cfn1/LJnqh0cmFVASrwo9Cfn1/LJnqg8KPQn59fyyZ6oAVUBrmD6iYXqTWSbfB8gj20WHKOFJU0SkqYkEhDhtuIWRKQrgdbXsZFulaT+AyMbGAAAAAAAAAJlyivJqz51Yr+PQBTRMuUV5NWfOrFfx6AK6XHXaUVOI+w+IAA2o1oAAAAAAAAAAAAAAAAAAAAAAAAAAAAAAAAAAAAANByHMMSwrWnErXMspqKGE7i+QR25NnOaitLdOXUKJBLcURGoySo9t99kmfyGN+AY2+LtjfFhqWGcslTWGOrPiX7NX3PVVXDHAx/hAaD9dmBdpIfrA8IDQfrswLtJD9YMgA5r5JbL6TL1V8TMb/AEuZ7f4Mf4QGg/XZgXaSH6wPCA0H67MC7SQ/WDIAHklsvpMvVXxG/wBLme3+DH+EBoP12YF2kh+sDwgNB+uzAu0kP1gyAB5JbL6TL1V8Rv8AS5nt/gx/hAaD9dmBdpIfrA8IDQfrswLtJD9YMgAeSWy+ky9VfEb/AEuZ7f4Mf4QGg/XZgXaSH6wafM1AwPOtbcW95ObUGQ9w4rkHdXuVZMy+Y45dRwcfNKVw8XArbfbfhPb4DFAAZa4/6dWe47wp2+FdycMczSWOKa19ZYtN7u0UnScMMesAADoxhwAAANByHMMSwrWnErXMspqKGE7i+QR25NnOaitLdOXUKJBLcURGoySo9t99kmfyGNu8IDQfrswLtJD9YMgA5/sh2AUNkFulbqlZxbSWCSehYazL2S9XZaSpKOOHWY/wgNB+uzAu0kP1geEBoP12YF2kh+sGQAYPyS2X0mXqr4kjf6XM9v8ABj/CA0H67MC7SQ/WB4QGg/XZgXaSH6wZAA8ktl9Jl6q+I3+lzPb/AAY/wgNB+uzAu0kP1geEBoP12YF2kh+sGQAPJLZfSZeqviN/pcz2/wAGP8IDQfrswLtJD9YHhAaD9dmBdpIfrBkADyS2X0mXqr4jf6XM9v8ABr2L6gYHnXKBxv3k5tQZD3DhuRd1e5VkzL5jjm03Bx80pXDxcCtt9t+E9vgMXQROi+MDjHmbkX32mFsGyWC6IXFZ43fCWUoY53mxxbl+5ehXdqW2tYY//gAAEsrAAAAAAAAAAAAAAAAAAAAAAAAAAAAAAAAAAAAADnqJ5UNVfOiJ+A1Q6FHPUTyoaq+dET8Bqhrmyrzc+1FmvxDNCQ6maGXOeZfHzGHmdWk4i4ymKa+xpm1qiNhLvNvKbJxl830rfcUlaX0oT4v7M1JJQrwDmlKtOhLKg8/c/eQ08NBEMB0AzLEbh6fO1NjLYdhOwm/c6Pbk/DQtSVbRvdG2nR2E+IkjJEcugiIjTsQ9Mvk0VFw2/W3+YXM+rVMYsGUPPOSpbb8ZZqhmqXMW+4tLCtlkk/33DXznG2rmSswC87daHLKcs/Yj3KZLMu5O2neotTNd1ExfGshyqdV+5ishmUbLrzZJJZNONIcNZNGk3DUZNqSRq3Po6CLCYPyboePSJMW9rNLTop0ZTE+qxrT5NO3Z+KZIKbxS30yG0cSzShSCIlHxb9AtwDxW2uouClm+tGruGU9BzA5yBdNF0x1qbphLptE3v7ycZ5rf+ziKtKTw/Jv3Rzm3/tN/GHSNHRUuM1ESgx2phVdbBbJqNDhR0MMMoL/dQ2giSkv+BEPcA8r2utaUlVljgHJvSB7uT9/SOqHnk1+BVQ8I93J+/pHVDzya/AqobHsO/HT/ACP9US7Z+MV0AAdHJgAAAEq0b8ouu31gQ/yrQiqiVaN+UXXb6wIf5VoRVQAAAAAAAABMuUV5NWfOrFfx6AKaJlyivJqz51Yr+PQBXS467SipxH2HxAAG1GtAAAAAAAAAAAAAAAAAAAAAAAAAAAAAAAAAAAAAAAAAAAAAAAAAAAAAAAAAAAAAAAAAAAAAAAAAAAAAAAAAAAABhqL4wOMeZuRffaYWwROi+MDjHmbkX32mFsGvW/8AES7vcZ6xfcR7/eAABDJQAAAAAAAAAAAAAAAAAAAAAAAAAAAAAAAAAAAAAc9XNNqTQ6k57PgaSZDfV19cxbGFNrp1UhtbaaqDHURpkTGnEqJyO6XSjbYiMjPcdCjTcg1n0exO3fx/KdV8NprSLw8/CsL2LHkNcSSWnibWslJ3SpKi3LpIyP4DES22KleFLaayzFMoqawZLO69UPo/5r6RofaId16ofR/zX0jQ+0RQ/CJ5P3Xpp72nhetDwieT916ae9p4XrRh+Cl3c1+Ja2iBPO69UPo/5r6RofaId16ofR/zX0jQ+0RQ/CJ5P3Xpp72nhetDwieT916ae9p4XrQ4KXdzX4jaIE87r1Q+j/mvpGh9oh3Xqh9H/NfSND7RFD8Ink/demnvaeF60PCJ5P3Xpp72nhetDgpd3NfiNogTzuvVD6P+a+kaH2iHdeqH0f8ANfSND7RFD8Ink/demnvaeF60PCJ5P3Xpp72nhetDgpd3NfiNogTzuvVD6P8AmvpGh9ojctBaLK6pnNrTLMUm485fZKmwiQ5siK893OmsgR+NRxnXWy3cju7Fx77ERmRbjI+ETyfuvTT3tPC9aNpxbNMOzqvctsJyymyGCy8cZyVVT2pbSHSSlRtmttSiJRJWk+HffZRH8pCbYLlst21HVoJ4tYZ3jmxT/YrhTjB4ozIAAyxcAAAAlWjflF12+sCH+VaEVUSrRvyi67fWBD/KtCKqAAAAAAAAAJlyivJqz51Yr+PQBTRMuUV5NWfOrFfx6AK6XHXaUVOI+w+IAA2o1oAAAAAAAAAAAAAAAAAAAAAAAAAAAAAAAAAAAAAAAAAAAAAAAAAAAAAAAAAAAAAAAAAAAAAAAAAAAAAAAAAAAAMNRfGBxjzNyL77TC2CJ0XxgcY8zci++0wtg163/iJd3uM9YvuI9/vAAAhkoAAAAAAAAAAAAAAAAAAAAAAAAAAAAAAAAAAAAAOeonlQ1V86In4DVDoUc9RPKhqr50RPwGqGubKvNz7UWa/EM0ADS8l1j0+w/IU4zktpOgyDS0pyUuomKr45OcXBz05LRxmDPgV0OOpP4P7S35lCnOo8IJt9RDSx0G6AJpW8pLQ26uLCkotUcXtHq2sVbOrgXMSQhTKeM3CTzbhqNSEtmpRbdBKSe/SM/RaoYdk+MVGXY3bRratuZLMNl6vlMSkNvOHwmha2lqRuhXQokqVsZH8IrlZ6sONFruGDNsAT7P8AXTBdOH7GFdxcomyquCVhJaqMXsbBDbSiWaeN9hhTDZnzauhxxO2257F0j2Y7q3jeXN2LeOVGUvTq2ImYqvn45OqX30K4iSTPug0whwzNJluStiPbcy3INz1cnLyXhrwzDBm6gNLstX8GpokWwubJdbEek9yyX7Fs4SIC+5FSt5Jv8HNkTSek+nY1ER7dO22wJ8G0hMWVZNYmQ5TaXmJDDhONutqLdK0qTuSkmRkZGXQYolTnBYyWAwPuPdyfv6R1Q88mvwKqHhHu5P39I6oeeTX4FVDadh346f5H+qJes/GK6AAOjkwAAACVaN+UXXb6wIf5VoRVRKtG/KLrt9YEP8q0IqoAAAAAAAAAmXKK8mrPnViv49AFNEy5RXk1Z86sV/HoArpcddpRU4j7D4gADajWgAAAAAAAAAAAAAAAAAAAAAAAAAAAAAAAAAAAAAAAAAAAAAAAAAAAAAAAAAAAAAAAAADVckyTLY+W0+G4bjdRaTbSusLNxyzt3YDTLUV2I2ZEbcZ81qUcxPRskiJB9PSRD++a14+YWBdspnssGvLxi3mjkX3ynFUHG9mmzS9rkvaVkskkoJReeKelGx3fd9ntFnVSos+fleslfNa8fMLAu2Uz2WHNa8fMLAu2Uz2WKoA1TylX/wA+Pqom70WTm+1kr5rXj5hYF2ymeyw5rXj5hYF2ymeyxVADylX/AM+Pqob0WTm+1kr5rXj5hYF2ymeyw5rXj5hYF2ymeyxVADylX/z4+qhvRZOb7WSvmtePmFgXbKZ7LDmtePmFgXbKZ7LFUAPKVf8Az4+qhvRZOb7WSbCEZ4jlA4979qCgrN8NyDuX3KuXp/Of67T8fHzsVjg28Xbbi33Pfh2Le/iVK+MDiPmbkv32lFVHSrgvO0Xxd1O22p4zljjgsNEmlm7EizKjChJ04aEAABmCkCK63Sr+VqPhmM1mXXdJBl0l7PklVySYU86w/WIa4j2PckpkO9H/AFhahFdXvLPgvmvkv3umGNverOjYatSm8GlmZRUbUG0a772Mg61889Ll/kD3sZB1r556XL/INhAcx35vDppeLIW2S1mve9jIOtfPPS5f5A97GQda+eely/yDYQDfm8Oml4sbZLWa972Mg61889Ll/kD3sZB1r556XL/INhAN+bw6aXixtktZr3vYyDrXzz0uX+QPexkHWvnnpcv8g2EA35vDppeLG2S1mve9jIOtfPPS5f5BkNNncjp9aavH5Oc5FcV1ji9xMdj2kwn0JfYl1iG1p8UtjJMh0v8A9wyI8WJfGBxzzNyH77TDMXBeVstF406dWo3F45m/7WXKU5OaTZeAAB0gmAAAAAAAAAAAAc9RPKhqr50RPwGqHQo56ieVDVXzoifgNUNc2Vebn2os1+IZoQDUTFrWy1sh2LOD5zLY7voz914Fstmnjtocc50n4qZSOdWRH0OlHc4OJJmtG25X8BzahXdCTlHlWBDTwIGXuVqBLzigxnUOnv3q7GYlZItmX1SURpbMmUskP9yyG3EvoIkGoidbVxeN0b7CR12nV5l+J4RlNpgmn2qzE2PTsNXeUTJSFqWp95a2W1SmrB11CucSS3edSg9i4EGRcKe2AEqneEqWKis2bl6sOTBlSngca5XopqfWaf2jp4HHjx4WERYTrUTUi0p2ozjDUg3Gm4leypmWlBLTsb3ARlsnYi32yGnWaafQ3ckkzL7FcjakY9019RqjYZstHc5rdJbpy0JXESa1NIRzW5qcUn4DSRjroBW7yc4ONSPg2tXJn1DLx0nImSQ9MMRz6Na5PlenGM6gwrZmYdtlk5l6XGjrpjbJae65SJTsYpKjJKEPbEoj2MtlGXRukj6H9N8fNlXOMNQ0sR3yVuUllszQ2+XQWxOISlwiLciJZFufwntwCPaLXt8FFrOuvH9v3PHLFAe7k/f0jqh55NfgVUPCPdyfv6R1Q88mvwKqGwbDvx0/yP8AVEu2fjFdAAHRyYAAABKtG/KLrt9YEP8AKtCKqJVo35RddvrAh/lWhFVAAAAAAAAAEy5RXk1Z86sV/HoApomXKK8mrPnViv49AFdLjrtKKnEfYfEAAbUa0AAAAAAAAAAAAAAAAAAAAAAAAAAAAAAAAAAAAAAAAAAAAAAAAAAAAAAAAAAAAAAAAAAaw15eMW80ci++U4qglbXl4xbzRyL75TiqD5w/qV5/n+WPuNwuj8JHv95Ndc5SqyiqrdyG/PYj2LaO4IDk5iykvOeK0mI/DWlTStzPj5wuaNs184tpslqHImmOMZdP1Sxexct8tgO5FGqXFwLXMb2XMsIxGchyS2+zdo4YyScloSl9h1JFEIlJJUguPuy9xWBkNlT2M6RJI6V92Uwy2pJNrdWytniWRpMzNKXFmnYy6T3PcaVVcn7E6hqtfi5FlJ29K0zFrLc7M0yIkZskkUdDaUlHNlRJTxoU0ZOGlKl8SkIUnXLDeMLLQlTxeLXx+m9OrQTpQcnicP6kVk7UTUfNs4m6VV8kn5VjMQuXSMObxa80RjJuRZYhMKS4o2+NLUaU6XjGSU7kZqpGGZBkLWj9Np7GjZpi0/GM4ixokfHMd5vu5t15uWnnkWNHEZhcBPbI2YYbcUjZvj3JodDp5LmnaEzyTfZyZ2TNiw+S8snuNITNd5102GFuGzFUSuhCo6G1JL5d+ke6t5PuPUTqzoc2zeMw/bs3UlqZdKtlSH2WUNspW/YpkSCbQbaHCSl1JcRbHugzQeRq3xY6lONNR4uGGKzZs2fTydXg85Qqck8Tjygyi/s9Uo94jCc6a4shbjt2j2Y6k/643xKUquIjpyZJDTyXFLacbbQSSNHQRKcHUGG6D6HZ1IyrJM30YwXILeRlNsl6faY7DlyHCTIUlJKddbNSiJJERbn0EREMpjXJgwrGL/37RMkyVzL1yFyHr9L0aIuQpZkThvQorDVe6taC5tTy4pvGnb9pulCk5F/k64FLtLO3kXuoLci2nv2D6IGfXdbHS46riUSI8OU0ygt/7Ebn8KjUZmZxrZeVnqtKjOUcFhisW/a1m8H/AGrMVRg1pPfo1jWOYfW5HjeJUFbSVELIpSY0CuiNxozCTQ0oyQ02RJSRqUZnsRdJmfyigDXMEwKl07qH6ShmXEmO/MdmqXa2kixkcbm25HIkLW8sujo41qMi6N9iIi2MYK0TVWq5p448r095cisFgTDN8v8AeXrbhlp718gvudxXI4/c1JC7qfRvLp1cakcRbILh2M9/hUkvlGwd/wB/7FdVezf/AKgK+MDiPmbkv32lFVHcthnmOh/l+uRjLR96/rkJV3/f+xXVXs3/AOoHf9/7FdVezf8A6gqoDaCycO8tDls6maFY9impGA4TfVsNq2OutqfLsf5iLaNvNmpJtSEuc42+3zS+EknwmS1GolcBEeS005R/hO3un+oXewyjC+LGciTzNwx/q8rik0yudhv7J7pZ+TnOBHjEZbdA6gzXSHTLUi7oMgz/AAqsyGZi63nan3Ra59mK47wcThMqM2zX+zRwrUk1I28U07nvour3lnwXzXyX73TDFX55urdhbq8Rn+AADkJAAm+kl3bSsNySynS5VjIh5HfNsk+6pxXNtTHibaSZ7mSSSkkkRdBERERCkDSabRzCMfyRzKqZWSRZb0x+e5GRlNp3At941G4s4JyO5j4jUpW3NbcR77bkRi/TlBQlGfVh3Y9aPVgadptjzthjWKauTNTbpq8vkRZlicu4kvVcopO28NqA46UZjpUlDamm0uEpBbmviWS9QxeFKx3S/H9XouY5a7kEq6YYlIsMksZ8OY2/Z9zrZ7kfeWw34i/FU2hKkGktjItyOwVujOndTkiMog1E1MlqQ5LjxXLaY5XxZC9+J5iCt04rLh8Sj422kq3Ws991K382PaE6bYxZxrWrgXS1Qn1yokWdkdlNgxXlGpRuMxJD647SyNSjSpDZGniPh23EzddPPnedrNgtGf7OnRn/AIKspG/gADGFAHixL4wOOeZuQ/faYe0eLEvjA455m5D99phndjXnSl/l+ll2jx0XgAAdWJwAAAAAAAAAAAHLNtqLp9iOruqVbledY9Sy3Mjhvoj2NmxGcU2dHWESyS4ojNJmlRb/AAbpP+wdTAIF5WCN5UHQm8Finm6iicMtYHL/AH7tGOt3CvT8T1gd+7Rjrdwr0/E9YOoAGucDbP0r8EWdzrWcv9+7Rjrdwr0/E9YHfu0Y63cK9PxPWDqAA4G2fpX4IbnWs5f792jHW7hXp+J6wO/dox1u4V6fiesFL0b8ouu31gQ/yrQiqhwNs/SvwQ3OtZy/37tGOt3CvT8T1gd+7Rjrdwr0/E9YOoADgbZ+lfghudazl/v3aMdbuFen4nrBu3Jlu6XI06lXOPW8K0r5GZI5mXCkIfZc4aSrSrhWgzSeykmR7H0GRl8gtQDJ3VcFK6qzrQm22sM/an+xXCkoPHEAADPl4AAACVaN+UXXb6wIf5VoRVRKtG/KLrt9YEP8q0IqoAAAAAAAAAlfKYnwavSdVnZzGIkOJkuMPyJD7hNtMtIvYKlLWpWxJSREZmZnsREKoJxr9/UCF53Yn+PwBRUrbng62GOSsfDOeOOUsnWTvv6aJdcWD9oYnrA7+miXXFg/aGJ6wWUBo3lcl6H/AOz/AILe8Mef7P5I139NEuuLB+0MT1gd/TRLriwftDE9YLKAeVyXof8A7P8Agbwx5/s/kjXf00S64sH7QxPWB39NEuuLB+0MT1gsoB5XJeh/+z/gbwx5/s/kjXf00S64sH7QxPWB39NEuuLB+0MT1gsoB5XJeh/+z/gbwx5/s/kjXf00S64sH7QxPWD7wNZdILSdHrKzVbDpcyW6hiPHYvYrjrzqzJKUISlZmpRmZEREW5mYrwnmvH9QovnVi/47BEy7/wCqUrfbKVl3LhlyjHHLxwymljhkZ8MSipckacHPL0LHR/JlgAB1018AAAAAAAAAAAAAAAAAAAAAAAAAAAAAAAAAAAAAAAAAAAAAAADQchzDEsK1pxK1zLKaihhO4vkEduTZzmorS3Tl1CiQS3FERqMkqPbffZJn8hjbvCA0H67MC7SQ/WDIAOf7IdgFDZBbpW6pWcW0lgknoWGsy9kvV2WkqSjjh1mP8IDQfrswLtJD9YHhAaD9dmBdpIfrBkAGD8ktl9Jl6q+JI3+lzPb/AAY/wgNB+uzAu0kP1geEBoP12YF2kh+sGQAPJLZfSZeqviN/pcz2/wAGP8IDQfrswLtJD9YHhAaD9dmBdpIfrBkADyS2X0mXqr4jf6XM9v8ABj/CA0H67MC7SQ/WB4QGg/XZgXaSH6wZAA8ktl9Jl6q+I3+lzPb/AAa9i+oGB51ygcb95ObUGQ9w4bkXdXuVZMy+Y45tNwcfNKVw8XArbfbfhPb4DF0ETovjA4x5m5F99phbBslguiFxWeN3wllKGOd5scW5fuXoV3altrWGP/4AABLKwIrq95Z8F818l+90wtQ0rP8ASeg1Ds6m6srW7rp1MxKixn6ub3Oo2pCmVOoV0HxEaozR/wDDhEO8LNK2WWdCLwclgUzjlRaRpIDKeDtQfP7PPTf/AJA8Hag+f2eem/8AyDR+B1q6SPt+BG3PIxYDKeDtQfP7PPTf/kDwdqD5/Z56b/8AIHA61dJH2/AbnkYsBlPB2oPn9nnpv/yB4O1B8/s89N/+QOB1q6SPt+A3PIxYDKeDtQfP7PPTf/kDwdqD5/Z56b/8gcDrV0kfb8BueRix4sS+MDjnmbkP32mGw+DtQfP7PPTf/kGXw3RbHMLylGYRr3IrOxar5Fa0qzsDfQ0w84y44SU8JbGaozXT/wBUZG6djVou+2QtM5pqOOjHlTWrrKoUXGSbKAAANzJIAAAAAAAAAAAAAAAAAAAAABKtG/KLrt9YEP8AKtCKqJVo35RddvrAh/lWhFVAAAAAAAAAAAAAAGCzrDKHUbC73AcojqfqMirpFXNQhXCs2XmzQo0q/wB1RErclfCRkRl8AA0fRvyi67fWBD/KtCKqPzQ5AvJh1yqeUtnWQa95Vk1xV6W2zkSm905shyNaWzkREZuwbS4pRKJFallJGouIkuxyIy5vYv0vAAAAAAAAAE41+/qBC87sT/H4Ao4nGv39QIXndif4/AEa2/hqn5X7j2OlGwgAD5oM0BoWX634DhORLxO3LJ5dqzEbnPR6XEra45lhxS0oW4qFGdS3xG2vYlGRnwn0DfRz/nOnGqOT6yZnbYDqJkuDvqxGsYr5sOugvQpstLswybdVLivb8HEjcmlIURObnv4omWOlRrTarPBJa8OVLVLXqKZNrQbpkPKO0qxlunkTpWTS4t+zHerJdVh9xZxpXP780hD0WK42bquE/wBlxc4XypIZG61t0/oGatyxdyA3raImczCjYvaSZzEY+jnpMVqOp+IjfoNT6GyIyMj2MjItEXTSpmmWkkOiwu9rCqsnqlTK6Ww85JgkybqX1vKUkjUkl7nz23ColEoj2UQy1neHpXqvlGT5FjGSWVblcKuKvnUdDNt3G3YyXELiOtxG3Fsp3WTiVrJLZm4sjURl0yty2d/ZipOWfNisXg8M2bNmz8ujvKcplYrbKvua+NbVM5ibCmtIfjSWHCcbebUW6VpUXQpJkZGRl8I9AwmFE571KxbuJt4wtxgnDp21NmUI1GZ82ZtFwcRb+Nw7lxb7Gfwnmxi5pRk0itATzXj+oUXzqxf8dgihiea8f1Ci+dWL/jsEZXY/53sv/wBkP1ItWj7mfY/cZYAAfWxoQAAAAAAAAAAAAAAAAAAAAAAAAAAAAAAAAAAAAAAAAAAAAAAAAAAAAAAAAAAAAAAAAABhqL4wOMeZuRffaYWwROi+MDjHmbkX32mFsGvW/wDES7vcZ6xfcR7/AHgAAQyUAAAAAAAAAAAAAAAAAAAAAAAAAAAAAAAAAAAAAAAAAAAAAAABJ5uj2dQMxyvKcB1hkY8xmFkxbzoLtFGmpRKbgRYXE2tZkokm1CZPhPfxuI99j2L++93rt9Ir/wAIw/8AMKqAAlXe712+kV/4Rh/5g73eu30iv/CMP/MKqAAlXe712+kV/wCEYf8AmDvd67fSK/8ACMP/ADCqgAJV3u9dvpFf+EYf+YO93rt9Ir/wjD/zCqgAJV3u9dvpFf8AhGH/AJg73eu30iv/AAjD/wAwqoACZaKZDmllYaiYpnGQR7yVheVNU0axagJhqkR3KetnEbjaFGniSuc4jctt0pT0b7mdNEq0b8ouu31gQ/yrQiqgAAAAACe6i6wwcOuYmB4xRSsuz21huTa7HILqG1Jjp3SUuY+vxIUTjLhN5e5qMlJaQ84RNnhK7RXKsrgMTdbNU8ktbF9JuS6nGrN+jpo6jUZkyyUU25TzaSMkmqQ+vnNjM0oSrm0gf3ylddGtBtOJ+YwFYtPuISUyGKS5yJqpcsWiPx2461pVxvGRGSEEk+JXQW57EfMWAf6QTG+VvjycVpNIMxpLCsyXFJNlMUTUqqhf84IJIbclEaFE44ZK4Ec1urhWfwJUZdXK5PGksDFMixnEMNqsXfySsl1kq4qYTLdls+yppTxyFJNbjhErclLNXSRb7l0DRcu0s0s5OXJ2rcOwarg45jNLlGLy5T7ziUcRpva83ZUl5W3Es0oI1LUexJSRFslJEUa2JuzVEua/cex0oroDQvCA0H67MC7SQ/WB4QGg/XZgXaSH6wfOW4LV0UvVfwMxlx1m+gNC8IDQfrswLtJD9YHhAaD9dmBdpIfrA3Bauil6r+Ay46zfQGheEBoP12YF2kh+sDwgNB+uzAu0kP1gbgtXRS9V/AZcdZvoDQvCA0H67MC7SQ/WB4QGg/XZgXaSH6wNwWropeq/gMuOs30TzXj+oUXzqxf8dgj7eEBoP12YF2kh+sGl6t6waS5Ti9dQ4xqjiNvZysqxnmIUC7jSH3eG7hKVwtoWalbJSpR7F0ERn8BDLXBYrTC9rLKVOSSqQ5HzkWbRKO0zz8j9xRAAB9WmiAAAAAAAAAAAAAAAAAAAAAAAAAAAAAAAAAAAAAAAAAAAAAAAAAAAAAAAAAAAAAAAAAAGGovjA4x5m5F99phbBE6L4wOMeZuRffaYWwa9b/xEu73GesX3Ee/3gAAQyUAAAAAAAAAAAAAAAAAAAAAAAAAAAAAAAAAAAAAAAAAAAAAAAAAAAAAAAAAAAAAAAYfMMsoMDxW3zbKpq4dLQwnrGwkpYceNiM0g1uOcDaVLUSUpMz4UmexGMwPlKixZ0V6DOjNSI0htTTzLqCWhxCi2UlST6DIyMyMj6DIAc0aF8o3Qu41e1Ix2j1QorazzzPGHseiVsjux2a03ilObjvCySjbbT3NISpbnCklsrQZ8STSOnBxZyLf9H9A5MOtepepM5yPLiTJSq3CS5w3HItS4ZPOKc3/9rvzbHF0K2ZdP910h2e+83GYckO8XA0g1q4Umo9iLc9iLcz/7i6QB9BF5mqOXawWCsa5PcmOxQkl9q01Fkxe6IMdaVKbNmqaVsiwkktJ7vbnEZNPjG+tK4487WLZ7yheYstToFhhunL8dzm8K7oU1aXaV8SSVcOtGXMMGgyP3PaWri4tpDiiNcZNorq6vqK+NU1MGPCgwmUR40aO0ltphpCSShtCEkRJSlJERERbERERADWdNtLMQ0qpnKrGIjzkmY53RaW0505Flbyv96TMkq8d9099iNR7JTshBIQlKC24AAATLlFeTVnzqxX8egCmiZcoryas+dWK/j0AV0uOu0oqcR9h8QABtRrQAAAAAAAAAAAAAAAAAAAAAAAAAAAAAAAAAAAAAAAAAAAAAAAAAAAAAAAAAAAAAAAAAAAAAAAAAAAAAAAAAAAAYai+MDjHmbkX32mFsETovjA4x5m5F99phbBr1v/ES7vcZ6xfcR7/eAABDJQABDtdGJVvqbhOPLyDIYFe9Q3815mpvJlbzzzUirQ2pxUV1tS+FL7pESjMi4z6BHtVphY6Mq9THCKxzaSmUslYsuIDm3vfV3zt1C7f3v6sO99XfO3ULt/e/qxrnDCwc2fhH5i1uiOo6SAc2976u+duoXb+9/Vh3vq7526hdv739WHDCwc2fhH5huiOo6SAc2976u+duoXb+9/Vh3vq7526hdv739WHDCwc2fhH5huiOo6SAc2976u+duoXb+9/Vh3vq7526hdv739WHDCwc2fhH5huiOo6SAc2976u+duoXb+9/Vj36aQJGO641NTDyXKZcGwxS6kyItrklhZNKdZmVaWnCRKecJKkpfdLiSRHssyEuw7JLJeFeNnpRkpPHSlhmTet6j2NZSeCOgwABsBeAAAAAAAAAAAAAAAAAAAAAAAAAAAAAAAAANFsc+n0OqZYleNxGqKdjr1vBlk2snEvRXSKUhxRqNPDzbrCk7JI+hzcz6NtEodT9YtQWqKgxZvGMeurWpcyeXOtamTOjQq12QpEBjuZuUwpx9xsuJa+eSlBtq8Q+IiTtOueixa0VNNWIyuVj66yxJ+Q9HjpeOZAcbU1LhKSoyIkvsrUg19Jp6FEW5EPVmmm2RS8hr820xyqrxnIIUBVQ4dlTLsoEqCaiWltyO3Ijr421lu2tLxEnjWRpUSugDB3Gd6vPSMc07qqvH6TNrhM6TMsLCO7YVkaFDcQhUpuOy+045z5us8DSn21Nk4o1KVzfCve8Gk5w9VPRdQYFe3awpCo/dlcnm4li2SUmmS0ypxxxglbmRtOLUpKkq8ZadlHpdjo7l5w6G+pNTuHPaJyWv3ctqo5sOU3LUSpMZyGh9pSY+6UG0hD6VNm03upZEsl5Ou0ao7iBEf1kjUeod9FsTtmZ1nSNHHr5OyCT7nx3jdOIhJNo2InFL4t1KWpRmYAnWM8ovNLLAM7nWVZRnllLcO19BGZZeRGlMvy3I0BbqVOKWezjTpOmhREfNLNJJ32KkY7q1QxNGMe1Z1QyOgxqLYVEKdPmTJaIUJp59tB8CVvr2SRrVwpJSzMzMi3MxqcLkzsRskxu+czaQtiiO2dkQUQUpanvSpD70Vxw+M1EcbuqQSSIzJRubnwmRbUzA8SThWB0ODrnd3JpKuPWnI5rmufJpskcfBxHw77b7bntv8JgCNZjyr8WvNNcdzDRDNKO0kZDcRaxa41TIylysNyOuQ4h6vqnufW8ltvY20rI078R+KRjbcU1VuJt1gkWddUV/SZhTTVpu62tfgIVZxzSs2+YeedUylTPPbtrUa0LYWSlb+KW0XOHZLW4pVY9pJk9fiy6VLbEVNlVLtoa4yEcBNOtc+y8rYtjSpL6DJSSNXGW6T0bLeTceQ6RwNOanPptJbw7VdyvII8JCnXJL7jqppkzxElCXkSJDZFufAlwjIzNJGYG8aT5fd57iZ5dbQ4saNZTpblQhhKiNdal1SYzqzNR7rcbSTnRsWyyLYtj33IeWqrIFJWRKarjIjw4LDcaOy2kiS22hJJSkiL4CIiIh6gAEy5RXk1Z86sV/HoApomXKK8mrPnViv49AFdLjrtKKnEfYfEAAbUa0AAAAAAAAAAAAAAAAAAAAAAAAAAAAAAAAAAAAAAAAAAAAAAAAAAAAAAAAAAAAAAAAAAAAAAAAAAAAAAAAAAAAGGovjA4x5m5F99phbBE6L4wOMeZuRffaYWwa9b/AMRLu9xnrF9xHv8AeAARfGOUVkuaY3U5jifJi1SsqO+gsWdZNRMxppMmI+2lxl0kO26XEEpCkq4VpSot9jIj3IQyUWgRXV7yz4L5r5L97phzpy7uV/r3objGG6j4VpzlmDuMXS4Euuyj3AmVt2y6ya+BaYVg/LSts2SNKm+bIicWSlkZoI9m011uz3Xq80/zTUHRW905nqxrI0IjWSiNucjummPuhglEl5LZ/CXONkWyi4VOFuoYq/PN1bsLdXiMsgCXa74y3mELHaApdHIkOWan2KHIGXF1V+aGHDVDkGglEnoM3EmpDhEpolc2vh2KKX+OwbSJjmBw9McWnLrtQHor+IWVol/HI7nuU47zMV0oRmhgiUTnNqjbpd4yJKS2McvoWRVoqWVhp5Pi18OshqOJ14A59x/ALDAcgwiPMoMcxxmyy+VLjUGOOKcraxHuTIQaWVGyxxGtSDdVsy2XE4fQZ7qVQeUGXFobnieFKt8fmlwq+A/2SugxblZ0qkYRlipcvfhr/c8wz4FBAcyWuncDDtK3LHvLac4LNl3GOt87ibqXly2vdKMf7dfcUUy2PpJPjl0me5Cpa73j8PFYmK11HZXc7KpzVaVbWrZRJkRS/aSyQp91ppP7BDhbqcSXjFse5kR1OyrKUYy0trk5MHjmbXLr5BklJAc0Ljv6gYDQ6e2sWHCu8avna/3pZilD0S4aZjrcjw5q4q3mdziuNOpUXPJJbfFzazSZFjEqtKWZitHhGH1EO3pNQH4vvdO/UVHCcOodWpqHJbh8bbHAvj4DjkaXDWnhSkyMXFYccVlZ8+rDDkeOOh69HWe5J1UPFiXxgcc8zch++0wnOkcnLJedahvZpSVFVZd1VpKj1do7YMEjuNPCZPOR2FGZ/KXN9H9pijYl8YHHPM3IfvtMMjsfp7Ve1KL1P2wbKqSwmi8AADqROAAAAAAAAAAAA56ubnUm+1Jz2BA1byGhrqG5i10KFXQapbaG1VUGQozVIhuuKUbkh0+le2xkREWw6FHPUTyoaq+dET8BqhgtkVpq2SwupRlhLFZy1WbjHFDuTVD6QGa+jqH2cHcmqH0gM19HUPs4ZoBz/f28emZE2yeswvcmqH0gM19HUPs4O5NUPpAZr6OofZwzQBv7ePTMbZPWYXuTVD6QGa+jqH2cHcmqH0gM19HUPs4ZoA39vHpmNsnrML3Jqh9IDNfR1D7ODuTVD6QGa+jqH2cM0Ab+3j0zG2T1mF7k1Q+kBmvo6h9nD+NOuUZgWFT8xw7XHlE4vGtqi9baryye3qquauA5XQniVzaEsJWjnnZBEskdPCZbnwjOj3cn7+kdUPPJr8Cqhsmxi8rXbLXKnXm5JRbz68Yl6jOUpYNno8LHksfSW0q7ZV3rg8LHksfSW0q7ZV3rhVQG8kolXhY8lj6S2lXbKu9cHhY8lj6S2lXbKu9cKqAAlXhY8lj6S2lXbKu9cHhY8lj6S2lXbKu9cKqAAlXhY8lj6S2lXbKu9cHhY8lj6S2lXbKu9cKqAAlXhY8lj6S2lXbKu9cHhY8lj6S2lXbKu9cKqAA561d5bWhWD6bX+YYDrBpXmF5TRe7Y9EnOoDDlghtRKdaaUhTiudNonObSSFGpZJTt0iXVnLv0C5U2m0Wmwy7kVOVlkeLvPY5bNk1L4U30DjU0ojNt9JbGfiK4ySXEpCB1Nq7pxH1e02v9Mp2R21HCySL3BNm1Sm0yiirUXPtoN1C0FzjfG0Zmk9kuHt07CKXfJp0S5OujjNPpJgNfTLdybFG5VgaTeny/+X4B/tpK93FlxbmSNyQkzPhSkugV0uOu0oqcR9hSAABtRrQAAAAAAAAAAAAAAAAAAAAAAAAAAAAAAAAAHJFhynMpiYFdRvdPIvfPG1CVSR5yMQlLr0QPddDBNHMKKcPfmTNG6nOPc+k+Mdbiau6B4c9hM/A1WVyVfYZEeTOuE81zxSjmpl8CT5vh5vnEkWxpNXD0cW/SLdSM3xXrLlOUVxjSX2dTC5SzOAJ12zBNA9j7mSHDKvpPFcKalsoxLOv4+Y4D4elXOfLzm/SNPxrlHZatyyzq/u7mPCl12RyKmll08JNVMXXLcJLcWQhZTEPIQ1xOG+SmneJXNbEkh0QvTylXqU3qmcqb7rNUyqMmeNHc/MKeJ01cPDxcfERFvxbbfJ8o1St5OeDQcgetpVjdWdaSrBcChmvNKr6xc4jKWpgktpe/acS+hx1ZI5xRIJBHsLbpzxzP2lanDDOjStPco1ZsrGzwC31R52db4XXZZCvZdVEUupdkKUiQ0hppDTa2k8JKb50lqSZnxqcIiIaXSayau5vhb5aZXOcZlVHnS6iuyuoqqn3Rn1LEc1yXUm+y3XJSUhKmUOrQglEWxcSulVTk8lfEpmHZHh8vOcyc98lZHol2aZUVubDqmDPmoLC0RyRzZcSyNTiFuqJZ8S1bFtk6XQR7HcLqsKpNZc9gM0TiDq5UMqqMuKwlo2+5uZagpjPNGR77PMuKJXjEojIjHmRU0Z/Eqy4af2IjqDyvbDTcsStMcm5LmcK5wy0lsQplO2cx+yjyWm1PTe445cyiOnnjeNpJI4UK4SUfDv0vpQ1kScAp5WV50zl9nOYKa9bRorUeM6TvjpSwhtJETKSUSUGriWaSI1KMzMYbGdBsExOzpLKrKer3Do5dC2w+6hxqSzJeS8+49ujiW6taTMzIyT4yvF+DbMaW6aU2kmJN4TjllZSaiLIfdgszVtr7iZccNZRmjQhGzKOIyQSuJRJ2I1HsK6cZqWMmUTlBxwibcAALxZAAAAAAAAAAAAAAAAAAAAAAAAAAAAAAAAAMNRfGBxjzNyL77TC2CJ0XxgcY8zci++0wtg163/iJd3uM9YvuI9/vAlXJO+Kxo39X+PfhzAqolXJO+Kxo39X+PfhzAhko3i7wXC8lvqXKMixOotLfG1PLp5syG289Xrd4OcWwpRGbSlc2gjUnY9k7biZaveWfBfNfJfvdMLUIrq95Z8F818l+90wxV+ebq3YW6vEZjMhxrHMuqX6DK6CtuqyTtz0KxityWHdj3LibcI0q2MiPpL4SHwq8Kw2jgVtVS4lTV8KmcU7WxosBppqEsyURqZQlJE2ZktZGaSLoUr+0xmQHI1OSWSnmIJjrqkjXUYkKcONMYJaoU9tllx+E6pCkc6zzyFoSskqUW5pMjIzIyMjMhq1TpndR5Dicq1byvMKuQy4xIqLuBSnDkJWWxkso8BpZl/w49j+UjG9AKo1ZRWC9y9mruGJjrzG8dyemexzJaCttqmSkkPQJ0Vt+O4kjIyJTayNJkRkR7GXyEMVi+mGmuD8PvL08xmg4FuOp9y6mPF4VrSlK1FzaC2NSUIIz+UkpI/gIbMA8VSajkpvAYmDusFwnJI9jEyLDqO0YtyaTYNTa9l9Ewmv9mTxLSZOcP+7xb7fJsP7q8Kw2jgVtVS4lTV8KmcU7WxosBppqEsyURqZQlJE2ZktZGaSLoUr+0xmQDbJ4ZOLwGJ52K+BGlSZ0aFHakzDSch5DaUreNJcKTWoi3VsXQW/wF0D5Yl8YHHPM3IfvtMPaPFiXxgcc8zch++0wzexp43pS/wAv0suUeOi8AADqpOAAAAAAAAAAAA56ieVDVXzoifgNUOhRz1E8qGqvnRE/Aaoa5sq83PtRZr8QzQ465VmTwImWZnT3GXUcNKcXjKhwrPVqyxpZqWmSSjYroyVNTDUaUkfHtuZEk+gdijEX2K0uQ1dxVTIqW03kNUGa+wlKHltGlSS8fbpNJLVw77kW59HSY51YrRGzVcuSx78OVESLweJzZpPkFXcxs5h12UYhbV0fGWX5TKdS7TO69PjvcZSEySQqNxISaeFsj3Lp2Vwkk5LrBp9UPZQVsWARZUORPcT7olSKtnHpSG4zDTDk1yhtXntj40JbdJniMuklK6E9cFopJnEbWW6uZrkrCY7kdlieiqYQxziSStae5ITKjUaOJHjGoiStWxEZ7j+n9BMRkpr2XrO2cjQZRynY7px3UTOJ03nG3jcZUrhceMnF8BoUo0pSZ8CSQMlTt9KjVc09Pa+TW87faitTSeJzdrTfR9PdLtLok7IqbB5kmtZZl1qc2tsRmKUpO/BGhVzBRmd3TLjkSGEttlulSW+Ilo2HEdUsHjYBndrjedYIvLK2nQ+4yvUGdkD9fFXtzn/LUonlGjpT+zZZ5pp0iNRr49xfrPSuROgpgQdT81q0x2CjwlRJUVXcqNz4i4XWFofNSDJG8hLppJJGjgXus/o1pRAiQ2K2sy/K4EJEJmA9HYsz4Xm20IQlSVKSa4y+BBpNUVTJnzilH4xJUmjdtB01GSeOOOl4accMMO7t1LT5lLA5gvcj1Jdk49Oq7TO5FTHgRZtAzgM/FX6ZElxaIjbDE2Wk3lMoN0mVqcS4Tq1qWSW0IJI7AxFUleM1qpk23lyO50k6/bx2mJi1l+8byGm22yXvvvwISk/hT0GRjV3NFcXKjsKiDY2sJ+a6y81YtONLlQzZkd0Nc1zjamz4XTNZm4hanFKUp03FGZjaMTxtjEseh4+xYTJ5RUqNcuYaDfkOLWa1uOc2lCOJS1KUZISlJb7Eki2IRbXaKdeCUEk09XJ1955JpmXHu5P39I6oeeTX4FVDwj3cn7+kdUPPJr8CqhnNh346f5H+qJcs/GK6A/wNy/tIdHJhomuWUXWHaW3d7j0xMKehLEdqapsnEwiefbaVJNKiNJk0lw3NlEafE6ejcSm9gvaRZoimpJuqpsXdHZtuW9xkqrissZaIbj6TaTIsFyIL7fNLVuxGbZUSjT8iDT0RZV9bcV8mpt4UabBmNKYkxpLaXGnmlFspC0KIyUkyMyMjLYyMaHRaAaU49Pdso1TZzX1xXYTB2+Q2NmmBHdSaXGoaJb7iYSVJPhMo5NlwklPwJIiAjmnGd5rWs6Q6Z5hl1nOvG58OWdg/JUT19UP1Mtxt1/ZX7Vbbyebc36DW02syLjSPLh0CZi+kGM64Q87zZ7Jpd/GjTG7PK7SygzmpNt3Ktg4Mh9cdv9mvxVNNoUg0JNJkW5H0PJ0x0+lzcSsZOPx1y8GJRY++brnOQUqYNhSSVxbrSbZ7GS+IjMkmZcREZa9jHJ30lxC3iXFRBvXFV8hyZCh2GV2thXxH1qUo3WIUmS5GaWRrWaVIbI0cR8JluAKaA/jnW/4if/mHOtfxUf8A1EAP7AfxzzP8VH/1EP8AOfZ/jI/+ogB9BMuUV5NWfOrFfx6AM1q7qbC0j03vtS5dDZX0THIvd8yDVc0qUqKhRc+42lxaEK5tvjcMjUW5NmRHvsItc8pnRDlF6Os22kufV9w43k2KOSq5SuZnxP8Al+AR87GXs4kuLxSXsaFGR8KlF0iulx12lFTiPsKSAANqNaAAAAAAAAAAAAAAAAAAAAAAAAAAAAAAAAAAAAAAAAAAAAAAAAAAAAAAAAAAAAAAAAAANGyKgjZdq1i+MW1leMVi8cvJ7jFZdzK3nH2pNWhta1RXW1L4UvukRKMyLjPo3Gx94fAv7/nHby9/WDHNeXjFvNHIvvlOKoOAf1Bve8LHfk6VnrzhHJjmjKSWjUmbZdVGnOyxcopvPydZPO8PgX9/zjt5e/rA7w+Bf3/OO3l7+sFDAaRwgvf0qp68viZHc1HmLwRPO8PgX9/zjt5e/rA7w+Bf3/OO3l7+sGUznVjCtPJMeDkUi2fmymlyEQ6ein28pLCT2U8tmEy6421v0c4tJJ36N9+gYu71+0xpH6qOmwu7ld1XFbwfe7jVneE5DNXCTxnAjvEhJqPYjVtuL8L2v6aTjXrNPR9qef2lO0UF/wCK8EO8PgX9/wA47eXv6wO8PgX9/wA47eXv6wbFjuoOIZXIjRaC3KU9Lrk2rSOYdQfcxuKb4lcaS4FEtKkqbVstJpMjSWw2EWpX9fMHhK01U/zz+J7uei//AAXgied4fAv7/nHby9/WB3h8C/v+cdvL39YKGAp4QXv6VU9eXxPdzUeYvBEvxPA6HCeUDjnuHIvHe7cNyHnfdO+nWW3BNptuDup5zm/3j34NuLo332La7CVK+MDiPmbkv32lFVHZ9idorWq56NavNyk8rFttt/bktLz6DH1oxhUcYrBASrknfFY0b+r/AB78OYFVEq5J3xWNG/q/x78OYGxFoqo1DOdKcK1Fm1tllEW0OXUtSGIkiuu5ta4ht82jdQaorzZrSo2GT2VuW6C22G3gPJRUlhJYoaSX+Dfpf/EzXt7ffrA8G/S/+Jmvb2+/WCoALO5qHMXginJWol/g36X/AMTNe3t9+sDwb9L/AOJmvb2+/WCoAG5qHMXghkrUS/wb9L/4ma9vb79YHg36X/xM17e336wVAA3NQ5i8EMlaiX+Dfpf/ABM17e336wPBv0v/AIma9vb79YKgAbmocxeCGStRL/Bv0v8A4ma9vb79YMxiGi+AYNkHvpoY10u0KG7XofssisbLm47q2luIQmU+4lHEphozNJEfiF07DeAFUaFKDyoxSfYj3JS5AAALp6AAAAAAAAAAABz1E8qGqvnRE/AaodCjnfHdOp+f6razT0ak5PjrdfmUKCiNUtVymnC97dM7zijlRHl8Zm8aehRJ2Snxd9zPE31YKl5WR0KTSeKefHDN2JlurFzjgjOgPd4P1j176hfZ6L2aNK1e0zyXAMUgXtNrhm70iVlGNUi0yYtKpBMWF1CgvKIk16T40tSXFIPfYlkkzJREaT07gfbufDxl8pH3PI2cB7vB+sevfUL7PRezQ8H6x699Qvs9F7NDgfbufDxl8o3PI8IDWMA0zyXKsr1KorDXDN24+HZQxSQVMxaUluMLpaycanTOvMjXzs51JGkklwJQW25GpW6+D9Y9e+oX2ei9mhwPt3Ph4y+UbnkeEBrGr2meS4BikC9ptcM3ekSsoxqkWmTFpVIJiwuoUF5REmvSfGlqS4pB77EskmZKIjSe6+D9Y9e+oX2ei9mhwPt3Ph4y+UbnkeEaxpnohovqVkupV7qNpDhWVWTGVMRGpl3QRJz7bCaWsUlpLjzalEglLWokke261H8pjdfB+sevfUL7PRezRtumumsPTWHcMMZJc3si9s/dWZMte5idU73MxHJJFHZabJJNxmy2JG++5mZ7jN3DcNpuu0yrVpRacWszetPlS1FylSlCWLNa8E/ks/Rp0q7G13qQ8E/ks/Rq0r7G13qRVQG2Eglfgoclr6NelfY2u9SHgo8lv6NelfY6u9SKoAAlfgo8lv6NmlnY6u9SP98FLkufRs0s7HV3qRUwAEs8FPku/Rt0s7HV3qQ8FPku/Ru0t7HV3qRUwAEt8FTkvfRu0t7H13qQ8FXkv/Rv0t7H13qRUgAHP2rnIr0PznTa/wAOwPSXS/D7u5i9xR71GDwXnICHFEl11pKEtq50mjc4FEtJpWaVb9Al0DkK6BclrTSNa4RQvWeUKyTF2XsitnCemGlV9B4ktERE2wk9zLxEko09ClL23HaQmXKK8mrPnViv49AFdLjrtKKnEfYfEAAbUa0AAAAAAAAAAAAAAAAAAAAAAAAAAAAAAAAAAAAAAAAAAAAAAAAAAAAAAAAAAAAAAAAAAaw15eMW80ci++U4qglbXl4xbzRyL75TiqD5w/qV5/n+WPuNwuj8JHv94AAGgmTIjrVGr67MoOUSHNS8anN13ckTJsGq37p15JrWpyFKgIhy2uEvEcQ66wexqWSFtnuS9WxfTnUrIM0xea7dZLpq5HwU2ZjuO1NW204+qeayZcTJiyWGnDSZOqba4TJSldJkOlwGQheEqdNQUVjhhi8H7GuvQ8VjowKHDF4krwzA0YRqk1AqIVguoi4iiOU+QSl8/KVPdddNbuxJN1Slm4oi2/e6CItiFUABErVpVpZUtJUlgAABaPSQapYzqFlesWE12mup3vFs28ZyJ52x9xWLPnWClVBKY5p4ySndSkK4y6S4NvgUY+veZ5WP00P/AOOa3/ONrV8YHEfM3JfvtKKqO8bDPMdD/L9cjFWj71/XIc/95nlY/TQ//jmt/wA42vknfFY0b+r/AB78OYFVEq5J3xWNG/q/x78OYG0FkqoAI3rReZq3qDiGKYvndpjMSwprqxlrrosJ1x9yO/XNtEZymHiSkilPfukRmZlufQLNptELLSlWqaI52eSkorFlkAc9dyaofSAzX0dQ+zg7k1Q+kBmvo6h9nDBcKru1vwLW3wOhQHPXcmqH0gM19HUPs4O5NUPpAZr6OofZwcKru1vwG3wOhQHPXcmqH0gM19HUPs4O5NUPpAZr6OofZwcKru1vwG3wOhQHPXcmqH0gM19HUPs4O5NUPpAZr6OofZwcKru1vwG3wOhQHPXcmqH0gM19HUPs4ZHTm6z+DrDW4tfal3WS1dljVtYLYsodc3zUiNKrkNrQqLFZV+7KdIyUZke5dG5CTZL/ALFbqyoUW8p48mpY/sexrRk8EXQAAZougAAAAAAAAAAASrRvyi67fWBD/KtCKqJVo35RddvrAh/lWhAFVEq5S3k6qPrAwT81VYqolXKW8nVR9YGCfmqrAFVAAAEq0b8ouu31gQ/yrQiqiVaN+UXXb6wIf5VoRVQBKuUt5Oqj6wME/NVWKqJVylvJ1UfWBgn5qqxVQAAAAAAAAAAAAAAAAAAAAAAAEy5RXk1Z86sV/HoApomXKK8mrPnViv49AFdLjrtKKnEfYfEAAbUa0AAAAAAAAAAAAAAAAAAAAAAAAAAAAAAAAAAAAAAAAAAAAAAAAAAAAAAAAAAAAAAAAAAahkcDN4WeUWb4dT0dp7n1FpVSYtnavQP+lPQXUOIW3Gf4tu41EaTJP75GR9BkPd79tberPB+2sv2WNhAa1eexC574tDtVtpZU3gscqS0aMyaROo3jaLPBU6bzdhr3v21t6s8H7ay/ZYe/bW3qzwftrL9ljYQGP8nexzoP95/MXd97XzvYjXvftrb1Z4P21l+yw9+2tvVng/bWX7LGwgHk72OdB/vP5hvva+d7Ea979tberPB+2sv2WHv21t6s8H7ay/ZY2EA8nexzoP8AefzDfe1872I1737a29WeD9tZfssPftrb1Z4P21l+yxsIB5O9jnQf7z+Yb72vnexGrYZd5vccoHHvfjjNHUczhuQ9ze5l09Yc7vNp+Pj5yKxwbbJ224t9z34di3vgidF8YHGPM3IvvtMLYL0bus10xVjskcmnHQsW9Od53i9LZPoVp16aqT0sCVck74rGjf1f49+HMCqjm3QDWjGsA0H03wPLMP1Sh3mN4jT1FnGRpdkr6WZceG008gnGoCm3CJaFFxIUpJ7bkZkZGKi8dJCK6veWfBfNfJfvdMIvyuOX5YaDUuK57gGG3lrULtVVt9VZPg9/RKkocaNxpcWfLitMtuJNlwjQaXVKJzckbIUZejT/AJTWGcqjJcF1AwuhyGpYZx7JYsli3gKZInilU3ETTxbtPpIyMt0KMy6ONKDMiGKvzzdW7C3V4jK+AAOQkAAIbru7ZStSMIomabO7yDKr7Z9+rxLJFU0hxbZxiQ6twpsQlJRxqLhNwz3X0JPpMvjltDlDlRiVdR0ObvVMdqS/bYmWeLi5MolLSlp8pxTTN9LajUSmzmoRs4R8SjSls5kbKpRjJywyuzr6+rlwXWVZJeAHOlzqC7H0voMWPLM1TYXVpNhOPxaaVMvayPFWs1tOtwSkOOraWTMdchJqSvi4uM+Pc/jZ6n5BcXWmedw7OyiRY9TJk5BWc47FaNRSokWT3RHc4TJTJuur2cSSkcB77dIqVgqP2rwx9+DPclnSICL6P5DdZJqll9zLvJ8mqta6HOrITshao8ZgpMthC2mzPhTziGEOGZF43EXw9AtAjVqTozyH1e4pawzAeLEvjA455m5D99ph7R4sS+MDjnmbkP32mGY2NedKX+X6WXKPHReAAB1YnAAAAAAAAAAAASrRvyi67fWBD/KtCKqJVo35RddvrAh/lWhAFVEq5S3k6qPrAwT81VYqolXKW8nVR9YGCfmqrAFVGvwsr7szq2wruDg9y6yFY9087vzndDkhHBwbdHD3Pvvue/H8BbdM51r06zvML+FOxbGPdKOzF5pxzvxZHiPCviM9u5quO4070GX7RZkr5NtiIfHQCiTi+S5XQ3mKSqnKWI9e9MeXqBa5c0/DXz/c5IlWRIeaNKkv7tE2kvGJRGri6AMvo35RddvrAh/lWhFVEq0b8ouu31gQ/wAq0IqoAlXKW8nVR9YGCfmqrFUUZkkzJJqMi+AvhMSvlLeTqo+sDBPzVViqKSlSTSoiMjLYyP4DIASqdq7qIaZEVnkq6oulsttLibHFySv4SJRb3BHsfw9JEf8AwG1aS0trjml2JUF5DOJY11LDiy45uIWbTqGUpWg1IM0nsZGW6TMv7DMaNlnJV0AfprKRjfJn0jlXrza1RjmY9EhpU8r/AH1SGozjrZluauJKTVuRbbfCW/YETlTTxcIm2Mmyscbr4USZOeL/AKU5zJftCM1GozPhMz4unp+E/hAGzgAAAAAAAAAAAAAAAAAAmXKK8mrPnViv49AFNEy5RXk1Z86sV/HoArpcddpRU4j7D4gADajWgAAAAAAAAAAAAAAAAAAAAAAAAAAAAAAAAAAAAAAAAAAAAAAAAAAAAAAAAAAAAAAAAAAAAAAAAAAAAAAAAAAAAw1F8YHGPM3IvvtMLYInRfGBxjzNyL77TC2DXrf+Il3e4z1i+4j3+8AACGSif6oaDaUa02OOz9U8SYyRvFn3pVdAnOuKg884SEm49GJXNSDJKNkk6lZJJa9i8YxqGqkSLA1d0/gwYzUeNHxTI2mWWkEhDaEyqYkpSkugiIiIiIugiFvEV1e8s+C+a+S/e6YYq/PN1bsLdXiM/wAAAHISAapmmmGI59Mr7LIE3LUyqS83ElVV9Pqnm0O8POJ5yG80pSVcCN0qMy8Uh5JWjmETaWDSSVZIsq1Tqos/302hWbZOK4nEd3lI7qNtRkndBumk+FJbbJTtuwC6q9WKSUngtGd5j3FmtY7pvhWKSok6go0RpEGG7BZdN5xxRNOuk66ajWo+NxxwiWtxW61mW6lGPG/pBp1KdtXZOOJd922prE5C5T5tuomc33SkkcfCjjNpBnwkWxkZlsalGe4gG3VMccp49oxZhKLCsXxmQ3JoqlERxqujVKOBxZpTEj8fMtkkzMvF5xfTtue/SZ7EM2ACiUnJ4yeIA8WJfGBxzzNyH77TD2jxYl8YHHPM3IfvtMM3sa86Uv8AL9LLlHjovAAA6sTgAAAAAAAAAAAJVo35RddvrAh/lWhFVEq0b8ouu31gQ/yrQgCqiVcpbydVH1gYJ+aqsVUSrlLeTqo+sDBPzVVgCqjTb+pqsZegyMbrIlU7dZHHkWTkFlLCprqyNKlvGgiNxRklJGatzMkl/YJZrNmumJarpw3WXXhvAMfr6SPYw4Cc097K7WU+8+hbipLTzMlaWUsoIm23Uo3eM3ErPg4cvyf81xC5yfK8R041gZ1DxSpj182DLLIG7xyvdfN9LsNU0lrdeSXMocLn3HHS50y4jRwJSBmdG/KLrt9YEP8AKtCKqJVo35RddvrAh/lWhFVAEq5S3k6qPrAwT81VYqijMkmZJNRkXwF8JiV8pbydVH1gYJ+aqsVF9fNsOOcRlwoM9yLcy2L/AIgCUnyodJ6aQcDUydZ6Zy0uusGWbQHKmGtxBn4jNi5/qElRp8cksSHDNPTt0KIqFT1jCLSxyOLYNymbpEZxvmyI0klDexKJZGZKJRHuRl/9xznOnV91ErptlccoLVIpVXHyNUWntodEdJCkEo0G97mO1vdXESF7McUtz9mfCnxt19HYm/j0nF6iTiSWE0jsFhdcTDfA2UY0EbZJTsXCXDt0bFsAMsAAAAAAAAAAAAAAAAAACZcoryas+dWK/j0AU0TLlFeTVnzqxX8egCulx12lFTiPsPiAANqNaAAAAAAAAAAAAAAAAAAAAAAAAAAAAAAAAAAAAAAAAAAAAAAAAAAAAAAAAAAAAAAAAAAAAAAAAAAAAAAAAAAAADDUXxgcY8zci++0wtgidF8YHGPM3IvvtMLYNet/4iXd7jPWL7iPf7wAAIZKA0PUTSWLqDdU2QozPIcdsKSLNhMvVJQ1c6zKXHW4lxMqO8n96K0ZGkkmXT0nuN8AUTpwqxcJpNPkedHjSeZki8H6x699Qvs9F7NDwfrHr31C+z0Xs0V0BE3ssPQw9WPwKdrjqJF4P1j176hfZ6L2aHg/WPXvqF9novZoroBvZYehh6sfgNrjqJF4P1j176hfZ6L2aHg/WPXvqF9novZoroBvZYehh6sfgNrjqJF4P1j176hfZ6L2aHg/WPXvqF9novZoroBvZYehh6sfgNrjqJF4P1j176hfZ6L2aMthWisfEMxazaZqFlORzo9ZKqo7dqmvQ0y1IdjuOqIosVkzUaorRbqMyIt+jp3FHAXKVhstGSnSpRi1yqKT8cD1Qis6QAAEoqAAAAAAAAAAAAlWjflF12+sCH+VaEVUSrRvyi67fWBD/KtCAKqJVylvJ1UfWBgn5qqxVRKuUt5Oqj6wME/NVWAJnytNU9FMLyamxjKsruI+c28JS6qAnU6yw6qRHJZkcmbJZlssIQSty6EOyFbbIbWRHtsPJGq8Rr6O+kUXKXTq5ZzpLUiyKLmLt7ApTMlcEaJz8mQ803tv0uuqW4aeLxS2Smh3Wa5Q5qDMwfF6+tUqsx5Vy8qY4ZuynnVOtxmWUEpJEklsqNxxR7ERoSReMak+LSbKtSZttdYZqm5j8u6qIlfPVMooLsOOSZSHN462XJEg0utqZVuonTJaVoURJ32AHk0b8ouu31gQ/wAq0IqolWjflF12+sCH+VaEVUASrlLeTqo+sDBPzVViqKSlSTSoiMjLYyP4DISvlLeTqo+sDBPzVViqgCeUfJ+0gxWVfy8Rw1rHffNEKFZsUsuRXxnG91GakMMOIaZdM1KNTraUuK3PdRj4T9atKcGs5WBtou23cc5mC9FqMStJkeJuw2620TkWMtotmXWlcJK6CUW+3wDUcz5aOiml+tj2hmrNnLwqzdixp1VbW6EN1Vow8n95EhKj5ngcQ82o3ybTu2eyj3IY2plxZ+o2p86DJakRpGSQnWXmlktDiFUFUaVJUXQZGRkZGXwjF3vb5XbZXaIxxeKXiW6k3COKN68JDS/+HmvYK+/Rh4SGl/8ADzXsFffoxhAGp8Mq/RLxZY3Q9Rm/CQ0v/h5r2Cvv0YeEhpf/AA817BX36MaOvMqpFFc3ympRIoe6e7Y5tkTyFMpNaiJJnsfEnZST32NKknvsY8ebaiU2CYHJ1CtY8hyvisNPqbQ9HZXwuKSlO65DrbKCI1lupbiUkW5moiIVrZdaZNRVFYt4aWe7fLUUTwkNL/4ea9gr79GHhIaX/wAPNewV9+jHO+nvKz0/1HzCvwqnrHW5tkbhNLRkmPWBJNDalnxNwLKQ8RbJPxub4SPYjMtyGemcp3k+QLuTQzNZ8IZkRGTcdU5kcFKErJZpUyZm7uTpGk90mXR0C9LZNboSyXQWOnM2/ce7dPUWrwkNL/4ea9gr79GHhIaX/wAPNewV9+jE6091S0/1Up03WA5dUXTKW21yG4M9iS5EUtPETbxNLUTa9vhSZ/IY2oWJ7L7RTk4zopNdbKd0SXIZvwkNL/4ea9gr79GNrwXUTFNR4M6wxOVNdbrJh18tE2slQHmZHNNvcCmpLbbhfs3mlEfDsZLLYxOR7uT9/SOqHnk1+BVQy1yX/UvW0SozglhHHM+tL9y5TqubwZXRLOUvLbgaUnOebkONx8lxh1aI8dx91RJvYJmSG2yUtxXR0JSRqM9iIjM9hUxONfv6gQvO7E/x+ANkrVXZ6cqq0xTfhnL+TlfZfKaD31sd+b2e9grz9IHfWx35vZ72CvP0gr4DnXlZt/o8PGQ3jo85+z4Eg762O/N7PewV5+kDvrY783s97BXn6QV8A8rNv9Hh4yG8dHnP2fAkHfWx35vZ72CvP0gd9bHfm9nvYK8/SCvgHlZt/o8PGQ3jo85+z4Eg762O/N7PewV5+kDvrY783s97BXn6QV8A8rNv9Hh4yG8dHnP2fAkHfWx35vZ72CvP0g/w9XMSbejMzIGXQUy5UeE09Pw63iMc8+6lppKnnYyW0cTi0JI1KIt1F0iwCea8f1Ci+dWL/jsETrt/qfbbdbaNllQglOUY44vNi0v3LdW5aNOEpqTzJ6jLAADtBrYAAAAAAAAAAAAAAAAAAAAAAAAAAAAAAAAAAAAAAAAAAAAAAAAAAAAAAAAAAAAAAAAABhqL4wOMeZuRffaYWwROi+MDjHmbkX32mFsGvW/8RLu9xnrF9xHv94AAEMlAAAAAAAAAAAAAAAAAAAAAAAAAAAAAAAAAAAAABKtG/KLrt9YEP8q0IqolWjflF12+sCH+VaEAVUSrlLeTqo+sDBPzVViqiVcpbydVH1gYJ+aqsAbPnulGBamFBdy2lccm1a1Lr7OBOkV1jCNW3HzE2K43IZJRERKJDiSUXQrcugevBdO8L00p1UeE0LNbGedVJkr41vSJj6v3n5D7hqdkPK2LiddWpatulRjYwAEq0b8ouu31gQ/yrQiqiVaN+UXXb6wIf5VoRVQBjMkxjG8ypJWM5fj1ZeU85JIlV9lEbkxn0kolES2nCNKiJSSPpI+kiP5BPfBO5LH0adKuxtd6kVUABxlmn+i60G1I1te1HyqsqazEYkWNEq8NxSnZpIyyQnidcmvR9lPqW4tzpbJpRJS2XGZJ2G5YRiWM4JlmouH4bRw6elqshhR4UGI0TbTLZUVX0JIv7TMzM/hMzMz3MzMdNjnqJ5UNVfOiJ+A1Q1zZV5ufaizX4hmgMty2AYPMMurcKqmbe1Ykusvz4lelMdKVKJyQ+hlBmSlEXCSlkZ9O+2+xGfQOYxi5NRjpIZCbnF6DIa7U7Fps7Uh4sZ90X4sksovGIjaHITS+ZU+UlKJR85zhk0Zuk2ncjJtK0krE67Y9g2nmjFQ03luQxLGwlwJEP3V1LmMka2zQtxRd3W8QnEJSRnzTb6DJRpUXCZcab7kefHSWsjH6rELzIrVivbsih1qoiFusreNrxVyn2W+JJkajJSi8Uujc+ga5iutNzmWLOZbSaHZ4qMaklFZck0iHphca0LNsvdHhSSDQfFzikGe5cPF07ZSnaKyyan/ims2Vhnw/fT49bK02cX6eZ9AudQqJOWaoSZdbFyLxklqYmOtDZsmhBoNeXSjUkluFultlxSiNRE4rc0H1Xeap0ES6U1qVnWM6bvrKPPpZFrKbgSZkNEt9KmHkyHU88hbSEmpGxcBvkZkSiSNhga9RbCgj2zGmmZe6Eyxl18al4a9Ut7uXfuh5K0yzjG0gyMuLnt1GWySUZkR5eTrXgDKMSOPZPTXM1XHKrajMKW5zT37rzxdHMtEfimpe3jbJLdR7C7arRO0TTlSebNmePXqa9mfDqPW2+Q9Gl+QXWQ0rkudjMOqqTUldEqG4RtP16i/ZHwdCkKIi6S4STspPD8u25if3OrFhRZlXYlO0mzE2bewKuhW7TtWuI6rgUs3eApvdJNpSlRmZskZEXwdJb0AYqtFp5WGCejPiW2B7uT9/SOqHnk1+BVQ8I5RxrlIVFZyy9QOT5fa5ZfpxHt7Guk08uoZpXIMqeurhtrafVPr5DjbiubQlJk4TZmkk8KVHuvZth/46f5H+qJes/GP0ByzL8VwOgk5Vm2R1tDSw1NJk2FjJRHjMG44ltHG4sySgjWtCdzMi3UQ0vXSVFnabVk6DJakRpGVYi6y80slocQq+rzSpKi6DIyMjIy6DIS7lHaF6vXGhebUWO616oZ5Z21S7WxMeeiYoy1NdkbMpJxw6trgbQa+cWpLqFklCjQpKuExA+T5yLda+TDpjFnak64zZkSXlGLbYTWuG/UxXF5BAPnVOPFvzvT08yhvxk9K3U9A362/hqn5X7ibHSjvMatZ5pKqcMyHKZ2OyWJGPMzHVw3l8KZHMINaVNu8JkpC0kkyWRHtuZGRKSaS2lSUqI0qIjIy2Mj+Uhy3Z6FYRd0GqOOT+TLQOQax21kYzOl0MFZKdeitHw1zBJU6nd5LilK4WyNfCaOc3NSfnWx0aVVvbXglhq14crXx5eQy8m1oLdqbqHOwLTl7OKzHfdeWnuRLNfxyP2i33UNkX+rR5Dytuc32bYcWe2xJMzE4035R+dZhndTiGTaR+4UW1N5CZvN5G1wLQytwi/wCUqKCyrckGWyXjX8pJMiUZaRyjNFtLMf0np8ZwnQHF2Z82fGmmddgjsjudTRIN1wyh01khLqkkTf7eOaVEat+LbhPn7SDSmPVak49cZPoa2/XQshckOtTNOJpEbSyWhtxBxsLiGRoUtLieckNtEaNzQ2ZEpOcsV12SvY51Wm39rB6HozYJSwectSnJSSOsWOVrHUeaIdxWJMcxWWmM2ihk2N4v/bSEKTPRBr3V17hIiqc4VJWjZxvdZcQqEXU+ukRKOxfr1w49pwty23pTLkisdcZ55hD6GFOI/aJI9jJZ9Km9t+LcuWVYZbSMgu7/ACjCMtuIkFlFgxMnYi47IqJby562YFc2xF7odIzmsKdeTzqUETyXHi2JCbnptgeY4ri1bpm1TKr6isUt8rYphLXYMmz+zakbr57nycWSXFKJRLSxvxbr4UxbbZLJSjjTzPtzaOTHl5cNOfVpqjKT0nqoOU9p3kOXFjEWuzBhmQ3BOHYy8Mu40Z9yS44hBKdehpbaQZoRwOrWSFmvZJnwmM1I1rozp4k6kxnILyysZ8+ugUsBljuyUuG8tqQslOvIYbaSbZnzjrqE+MhO/GtKDmmN6Va/sZRGq7/NsKk1FZDxrugo2JzYxyGocl1fNMylz3E84jh3Uo2TJZLSXA1vuMtQ4TqBgKqjOImGSLyZWzMkiy6SJNity3Yc+yOSy/HW84hhSy5tozQ4634jij34kkhVqrZrEpf/ABSx0aZf2t521HS8MfeuT1SlylWwnN4ObQpTjdVZU9jWv9y2VTZNtplQX+FKyQ5zS1tL3QpKiW04tCiPxVH0jXteP6hRfOrF/wAdgj7aa0mQKusm1AyahVQy8odi81UuvtPSIseO1wI7oWypbRvKNSzMm1rQSeAiUoyMx8deP6hRfOrF/wAdgiu5oxjfdlUNG2U+vPlRxWPLg8xTX+4njqfuMsAAPrA0MAAAAAAAAAAAAAAAAAAAAAAAAAAAAAAAAAAAAAAAAAAAAAAAAAAAAAAAAAAAAAAAAAAw1F8YHGPM3IvvtMLYInRfGBxjzNyL77TC2DXrf+Il3e4z1i+4j3+8AACGSgACN60Xmat6g4himL53aYzEsKa6sZa66LCdcfcjv1zbRGcph4kpIpT37pEZmZbn0CzabRCy0pVqmiOdnkpKKxZZAHPXcmqH0gM19HUPs4O5NUPpAZr6OofZwwXCq7tb8C1t8DoUBz13Jqh9IDNfR1D7ODuTVD6QGa+jqH2cHCq7tb8Bt8DoUBz13Jqh9IDNfR1D7ODuTVD6QGa+jqH2cHCq7tb8Bt8DoUBz13Jqh9IDNfR1D7ODuTVD6QGa+jqH2cHCq7tb8Bt8DoUBz13Jqh9IDNfR1D7OGR05us/g6w1uLX2pd1ktXZY1bWC2LKHXN81IjSq5Da0KixWVfuynSMlGZHuXRuQk2S/7FbqyoUW8p48mpY/sexrRk8EXQAAZougAAAAAAAAAAASrRvyi67fWBD/KtCKqJVo35RddvrAh/lWhAFVEq5S3k6qPrAwT81VYqolXKW8nVR9YGCfmqrAFVAAAEXZx7XjBc+1BuMGwvAsip80vo16y7bZfMqpMZSKivgKZUy1WSUqLigGslk50k4RcJcO55P3x8qfqb0q/xLsfYQqoACVe+PlT9TelX+Jdj7CD3x8qfqb0q/xLsfYQqoAD8vda9ZeXVjnLXfx3QChj2lzJqa6RkuIVt9JyKgjvGlSW1yHJUaGmtNxlEdSjRzfFuhRumbhpLqHT2XmE/Is/magU1dU5G9fQV2UKumKlRmHzoariSh1SEGov/h0HuRGoi4j6eQyy0pxbTSEKeVxuGlJEa1bEnc/7T2SRb/2ERfIObbi4exbVPUcrTFMydbs76JNhyK/E7SfHfZ9xq5o1JejR1tns4y6ky4tyNB7kMBslo1bRYHClFyeKzJYv2Fqsm45jahP9ccNs89wZvG6uNIeW7cVb7xRppxHUR2pjS3loeStC0KShKjI0KJe5eL07DM98Gu+aWoXYC9/SB3wa75pahdgL39IOe07uvClNTjQnis/Fl8CIoyWfA1nDdKmsH1Rm3lMu/kVUygaiKkW+STbZZSEyFq4EHMfdcQXCoj8XZJ/94+eJ47neK6CLx2BWc1lTECciJH59o+GQ466po+Pi4P8AfSr94bV3wa75pahdgL39IHfBrvmlqF2Avf0guysd5T41Cb0aYy5Mfie4S1GpZFiFzhjmFXOE4nLv28XrpVM5WxJbDL6mn22iS6k5DjbSuFbKTXuslcKlGklH0H86/TjJKbTTT3E+aZlz6C1rJVibLpE2gm1mt5STXsakpNR7f7xlt0Dce+DXfNLULsBe/pA74Nd80tQuwF7+kHu5LywS2iWb+2XX8WMJajztUNtM1UkZLZRCKsraZqFVOG4k93nnVqlK4SPcj4W4ydzIujfbfpG3jWO+DXfNLULsBe/pA74Nd80tQuwF7+kFiV22+eGNCeb+2XwPMmWo2ccws8mPR9Wc5bq/qDiMDLFO6rRqbIHLVrnUJqLGshtxm0IM+FruebPjLN5JErm0u8R8O3Bd++DXfNLULsBe/pBk9NsLb1MwHWDG72qvKiszW5ejR3LGrk18nmV0lfHOQ23IQ24Rodbc4V7F4ze5H0bjZditjtVmtc5VqcopxelNZ8VrXaXaEWpZ0XevgQ6qBGrK9hLMWI0hhhpO+yG0kRJSW/yEREQ0DX7+oELzuxP8fgDJaMZnYZ9phj+S3jSGbpcdUK7Zb/dYtYrio05ovg6ESmX0fAX7vwF8AwvKQnx6rTBFpLS+piHlGLSHCYjuPumhF9BUfA22SluK2LoSlJqM+giMzIhutri52ecYrFtP3ExPB4s2kBPO/wAYF/cM47B3v6MO/wAYF/cM47B3v6MfP3B+9/RanqS+BlN00eevFFDATzv8YF/cM47B3v6MO/xgX9wzjsHe/ow4P3v6LU9SXwG6aPPXiihgJ53+MC/uGcdg739GHf4wL+4Zx2Dvf0YcH739FqepL4DdNHnrxRQwE87/ABgX9wzjsHe/ow7/ABgX9wzjsHe/ow4P3v6LU9SXwG6aPPXiihiea8f1Ci+dWL/jsEO/xgX9wzjsHe/oxqmpmpmP5xj9fjeN0+YvTnslx59KX8Ot4rSWmbeI86tbr0ZDaEpbbWozUoi2SMrcVxXpSvSzVKlmqKKqQbbhJJJSWLbw0Fm0Wik6UkpLQ+VaiggAD6hNIAAAAAAAAAAAAAAAAAAAAAAAAAAAAAAAAAAAAAAAAAAAAAAAAAAAAAAAAAAAAAAAAAAMNRfGBxjzNyL77TC2CJ0XxgcY8zci++0wtg163/iJd3uM9YvuI9/vAAJFXcqfSe4r41vSwNSLKvnMokxJsHTDJpEaSytJKQ6063ANDjakmSkrSZpURkZGZHuIZKK6Irq95Z8F818l+90wi/K45flhoNS4rnuAYbeWtQu1VW31Vk+D39EqShxo3GlxZ8uK0y24k2XCNBpdUonNyRshRl6NP+U1hnKoyXBdQMLochqWGceyWLJYt4CmSJ4pVNxE08W7T6SMjLdCjMujjSgzIhir883Vuwt1eIyvgADkJAADl/X2rqJOtVRby7mBWuxYTTLdhDxmVPu6+SSZJs8xJaMkxmnFOkS+IlIXwkhZo4k8Xy06uMijYzdzXkWbbLWLQ5DK+4WzgvSlwWOdJ7Z1wuIkEnhbWjm9nFcK3T3JGRVgxpqopaUuTX7yvJzYnUoD8/8AJ6ty618j1eQ4dBvKZi8bqWl3GKMz2kwU2KWEslJfoF/s0pWpJf8AKRkSj6FpVswdcxKrkd3acYpJsaNmjtsfcgRK+RDQpvuMlx1SYfNm0ppROIjmSSUZeKpzbbhSR3Kl2bVFNz0rHR1N/seuGB1IAj+lOkmlOKahZpa4tplidNNgWLDESTX0saO7HaXBYNaG1oQRoSo1KMyIyIzM9/hFgGPrQjTlhF45lyYac+tlDWAHixL4wOOeZuQ/faYe0eLEvjA455m5D99phmNjXnSl/l+llyjx0XgTnL9aqXHpztVT1zlzLjqNt/m3SaZaWXwoNwyPdRfLwkex9B9JGQzmqN3Nx7Ara0rnTalJbbZacI9jbU64lslEfyGXHv8A/Ac2NNNstpZaSSUIIkpIvkIQ/wCqf9QrXsSdKwXalttRZTk1jkxxwWC0Ntp6cyS0Z8213PdkLanUq8VZsC14/rzUT5aYmSU7lMlxXAmT3QT7BGfwcauFJoL/AKxp4S+UyLpFRIyMtyPoHIpkRlsZbkYvGhlvKssJVDlLNfuRMcgNKM9/2SUIWhP/AO1LhJ/7kiF/S7+pFu2T2qd13qk6ijlRklhik0mmlm5cU0lyld73VTskFWo6NDRQwAB2818AAAAJVo35RddvrAh/lWhFVEq0b8ouu31gQ/yrQgCqiVcpbydVH1gYJ+aqsVUSrlLeTqo+sDBPzVVgCqgAAAAAAAAAAAAAAAAAAAAAAAAAAAAAAAAlWn3/ADP1k1A0+X4kO87mzeoL4El3Qnuaeyj/APokRkSF/wDWsS6fkT6OUV5NWfOrFfx6APPrR/zWybT7VpvxG6K6LH7Zfy+5dupuMov+CUzk1jylH0EhhZnsXjJ9HKK8mrPnViv49AFdLjrtKKnEfYfEAAbUa0AAAAAAAAAAAAAAAAAAAAAAAAAAAAAAAAAAAAAAAAAAAAAAAAAAAAAAAAAAAAAAAAAAAAAAAAAAAAAAAAAAAAGGovjA4x5m5F99phbBE6L4wOMeZuRffaYWwa9b/wARLu9xnrF9xHv94Eq5J3xWNG/q/wAe/DmBVRKuSd8VjRv6v8e/DmBDJRldUNBtKNabHHZ+qeJMZI3iz70qugTnXFQeecJCTcejErmpBklGySdSskktexeMY1DVSJFgau6fwYMZqPGj4pkbTLLSCQhtCZVMSUpSXQREREREXQRC3iK6veWfBfNfJfvdMMVfnm6t2FurxGf4AAOQkAnOU6GYzmGSzsptshyhqVMaZYS3AtFQ22GkJUhaCJkkm4lxC1JUTpubb7o4FESiXGh2PXN0uxcv7uNXKjk03Sx+5UwmnSjdzJfQZsG8SyZPgJJum3t08G/SKMAvq01VglLRmPcWa9keIOXklyxrspt6CxVDOE3NrkxVuNINxLhmlMll1s1GadvGQZbGfRvsZYym0lxangKgm5NmK7mhRUSJLqecaKKZqZUjgSlKFE4anDMk9KlH/u7JLdAFKrTSyUxizWsIwo8NYnnJyi4yKfaSSlS7G0TFS+6om0tpLhisstESUISRbNkfymZn0jZQAUSk5vKYA8WJfGBxzzNyH77TD2jxYl8YHHPM3IfvtMM3sa86Uv8AL9LLlHjosmT0EXKcfn4/MWpDU5k2+NJbmhXwpURf2kZEf/wHMF1V2eM2K6fIo5RJbZ7EZ7k2+XyLaUf76T/+ZfAZEZGQ6zHlsaqrt2O5batizWT/APZyGUuJ/wDkojIZPZ5/T6zbNqdObqbXWp4pSwxTT5Gs3LnTTzZ9JsN3XnOwNrDGL5DlCGzJs5zdXUxnJs51XCiOwXEsz/tP/wB1JfKpWxF8JmQ6U08xL3l4xHqHXEOSlqVIlrRvwqfX0q4d+nhLoSRn07JIZeroqSkQpulpoMBCv3kxY6GiP/vJJEPcI2wL+m9m2FynaZ1NtrzWGOGCS04JYvS9LerNhnxrvK9ZW9KCWEUAAB0wxIAAAASrRvyi67fWBD/KtCKqJVo35RddvrAh/lWhAFVEq5S3k6qPrAwT81VYqolXKW8nVR9YGCfmqrAFUMyItzPYiGpYxq/pLm8i0h4ZqjiN+/RpNdo1V3caUuCkjMjN8m1mbRbpUW6tv3T/ALBieUFV3F1o9kdbSwJc9x5hvumFDSan5cMnkHJYbSRGalrYJ1BJItzNWxdJiNZRqRiWb51XRtLswwPKaaqxy3iPV9JXvuWeMsnAXv3XJZlmywhbjTTRRn4yFcSeg+Js9gOlYuU4xNh1djDyOrfiXhpKrfamNqbnGpBuJ5hRHs7uhKlFw77pSZ/AQ17G9btF8yyRzDcQ1dwq8v2ed5yqrb+JJmI5s9nN2W3DWXCfQrcuj5RzrhVdL05s9CdOmYL/AL2LWdGusfdQhSmoSzppRy4JnufARLWTzRdBcLjiU7E2RDy4XqJpzluieE6X4jmGP3uocDJ4zzNLXWbL1nWqZt1LfkOtNqNxhDbHO8alklPCrhM/HIjA7JAAAAAAAAAAAAAAAAAAAAAAAAAGv6g4ZXai4JkGBWzrjUTIayTWuvN/7RknW1I5xB7kZLSZkpJkZGSkkZGRluI1lOT2up/Jfx21tpTlZfTL/Gay5XDJs1wbePkMOLOS2TiFIM2pTTyU8aDT4hbp23SOhDMiLcz6BxtrFqxp/pM9nVDY5PXu1dxmGH5jRsxJLbrkmQu4iIsYMZBK3ceQ5AVKWj4f9dUe/Ck+CzaZTjRnKnpSeHbhmPUk3gyud6HIuvjPfstH7ODvQ5F18Z79lo/ZwpADhPDC/fSp+JP3DZuYvAm/ehyLr4z37LR+zg70ORdfGe/ZaP2cKQAcML99Kn4jcNm5i8Cb96HIuvjPfstH7ODvQ5F18Z79lo/ZwpABwwv30qfiNw2bmLwJv3oci6+M9+y0fs4O9DkXXxnv2Wj9nCkAHDC/fSp+I3DZuYvAm/ehyLr4z37LR+zhrme4nluA08DJIeseXWSk39HCdiT4lRzDzMqzjRnUq5qC24W7by9jStJkex7i1iea8f1Ci+dWL/jsEZO5dlV9Wi87PRq2mbjKpBNY6U5JNFqvYrPGlJqC0Pk6jLAAD6WNMAAAAAAAAAAAAAAAAAAAAAAAAAAAAAAAAAAAAAAAAAAAAAAAA0vI42QZBqXjuG1ebW+OQpVFcWclysYhLdedjyK5tojOUw8RJIpTvQkiMzMtz6Nhme9DkXXxnv2Wj9nDxteXjFvNHIvvlOKoOE7PdkN63dfU6FkryhBRjmTzZ0bTdllo1bNGU4JvPydZN+9DkXXxnv2Wj9nB3oci6+M9+y0fs4UgBpnDC/fSp+JP3DZuYvAm/ehyLr4z37LR+zg70ORdfGe/ZaP2cKQAcML99Kn4jcNm5i8Cb96HIuvjPfstH7ODvQ5F18Z79lo/ZwpABwwv30qfiNw2bmLwJv3oci6+M9+y0fs4O9DkXXxnv2Wj9nCkAHDC/fSp+I3DZuYvAlmIYhY4pygcd7vzy/yTurDch4PdVqCjufhm0+/B3LGZ34uIt+Pi/dLbbp3vIlSvjA4j5m5L99pRVR13YxbK9vumlaLTNym8rFvS8JSS9iIdWEac3GCwQEq5J3xWNG/q/wAe/DmBVRKuSd8VjRv6v8e/DmBny2VUaHqJpLF1BuqbIUZnkOO2FJFmwmXqkoaudZlLjrcS4mVHeT+9FaMjSSTLp6T3G+AKJ04VYuE0mnyPOjxpPMyReD9Y9e+oX2ei9mh4P1j176hfZ6L2aK6Aib2WHoYerH4FO1x1Ei8H6x699Qvs9F7NDwfrHr31C+z0Xs0V0A3ssPQw9WPwG1x1Ei8H6x699Qvs9F7NDwfrHr31C+z0Xs0V0A3ssPQw9WPwG1x1Ei8H6x699Qvs9F7NDwfrHr31C+z0Xs0V0A3ssPQw9WPwG1x1Ei8H6x699Qvs9F7NGWwrRWPiGYtZtM1CynI50eslVUdu1TXoaZakOx3HVEUWKyZqNUVot1GZEW/R07ijgLlKw2WjJTpUoxa5VFJ+OB6oRWdIAACUVAAAAAAAAAAAASrRvyi67fWBD/KtCKqJVo35RddvrAh/lWhAFVEq5S3k6qPrAwT81VYqolXKW8nVR9YGCfmqrAFVAAAAQ7XRiVb6m4Tjy8gyGBXvUN/NeZqbyZW8881Iq0NqcVFdbUvhS+6REozIuM+gXERXV7yz4L5r5L97phjb4qTpWCrOm2mlpWZluq8IPA1fvfV3zt1C7f3v6sO99XfO3ULt/e/qxs4Dlu+tv6efrS+JCy5azWO99XfO3ULt/e/qw731d87dQu397+rGzgG+tv6efrS+Iy5azWO99XfO3ULt/e/qw731d87dQu397+rGzgG+tv6efrS+Iy5azWO99XfO3ULt/e/qw731d87dQu397+rGzgG+tv6efrS+Iy5azWO99XfO3ULt/e/qx79NIEjHdcamph5LlMuDYYpdSZEW1ySwsmlOszKtLThIlPOElSUvulxJIj2WZDMDxYl8YHHPM3IfvtMMzsft9rr3jTp1aspReOZybXFfJiXKUm5pNl4AAHSyaAAafm+rGE4DLjU9xYvS76wbN2BQ1cdc20mII9jW3FZJTnNkrYlPKImkb7rWgukAenUXUzBNJMZdzLUfJYtDSMutsOzpXFzSFrPZBKNJHtufQRn0bmRfKQ/MDWbS7kial8pvTjVvk16s4nJmv5tRu5NicR1SESULsWELlRUcJJJe693Gy2IyNSy2MlEf6C2+L6r611cukzdmJgGGWjK48ulaTGtLqwjrLZbUp5ZOQoqVJNSFtMpkqMjI0SG1dA5n0E5ElbyU9GZGQ5KxAk5/k2ZYumbIjqN1ECAWSQVNQ2nFERmR7IW4ZERKWSS8Ym0qONbfw1T8r9x7HSjtMAAfNBmgOLeXVnzVNk0agRnkylcRjrzrkNWRIq2JBOrWSVJT746lby/2akmRtSSIjT0EajSrtIY+0oKy1i2Md6OlpdrEODJkNISl5TRksiLiMj34ecWZEe5Eaj6OkxOu61qw2hVmscCiccpYHDHJx1AauqfPqFzP59447gUt5uGnIkWsaOTTZkpav+cluplw+dSki4I5GSVdBmnZPQ/gw8mv3gd2eDzpn3R7j87zvvSgcfHzG/Fxc1vvv07ip2eF0VvROUcuPvx1T1OmYSEd0tRnUEhwkLNJ8O/CkzLbYzSkzI9iGh+DFpx7m+5fvj1Q5rmOY376GSfu8PD+73dwfB8nDw/8NugZCtekLRUdRSlTxa4ufHDNriUKDSw0m+4H/UfHf/0mJ/8A8UjODy1NaxTVUKnircUzBjtxm1OGRqNKEkkjMyIi32Lp6CHqGDm1KTaLqAnmvH9QovnVi/47BFDE814/qFF86sX/AB2CMrsf872X/wCyH6kWrR9zPsfuMsAAPrY0IAAAAAAAAAAAAAAAAAAAAAAAAAAAAAAAAAAAAAAAAAAAAAAADWGvLxi3mjkX3ynFUEra8vGLeaORffKcVQfOH9SvP8/yx9xuF0fhI9/vA0DXTILzHNOpMjHbRdVNnToFWVmhtK1V6JUpphclJLSpBqbS4ak8aTTuRcRGW5Dfx4rukpskqJmP5DVQ7OssWVxpcOYwl5iQ0otlIWhRGlSTI9jIy2MaNRnGnUjOaxSazGSaxRz9kDUjSvJbnGqB7U+NFscTuX2rG6yNVxBmymI6XEux3JE92XDda4lFslhttfF/1EGNZwWvz2NhDWXU2Oaq4yy3h0yXcWOXZ2q4asVqgGplUNn3SmGw4T2zvOcDBpSXD078JXOn0F0wpZEuYios7GVMhP1vdFzfWFq9GiPFs8xGclvuKitrIk8SWTQR8KN/3U7bd72aT3se87uL/kfuD3M7m5xf/Rub5vg49+L9zo333+XffpGUleUIxyYpvHDFvl0/3PF9uPVgW8hkhrKt/VjIWMVyrJ8niVlJi1NYtMU9/NqX5kqUl4lyHpER1p9wkk1wkjj5vdSlKSpRJNO7aN3Nza4xPh3li5ZO0l3Y07M9w0m5LYjyFIbcWaSJKlkkiQoyLpUhR/DuPRlGj+B5dHrGLKHaw3KdgokOXT3k+qmNx9iLmDkw3mnltHskzbUs0mpKVGRqSRlstFRU+M1EWhx+tYgV8JHNsR2EcKEJ+H4P7TMzMzPpMzMz3MxFr2inUpZMceTNhmWtp48ul5l34IqUWme4AAQCsmGb5xS4BrbhlzewsglR3sVyOMlFJj1hcvks5dOojUzBZedSjZB7rNJIIzSRmRqSR7B4S2nXzc1V/wAJ8q9nAr4wOI+ZuS/faUVUd42GeY6H+X65GKtH3r+uQlXhLadfNzVX/CfKvZwck8jTyWtHEnt0YBjxdB7/AP5cwKqJVyTvisaN/V/j34cwNoLJVRDtdGJVvqbhOPLyDIYFe9Q3815mpvJlbzzzUirQ2pxUV1tS+FL7pESjMi4z6BcRFdXvLPgvmvkv3umGNvipOlYKs6baaWlZmW6rwg8DV+99XfO3ULt/e/qw731d87dQu397+rGzgOW762/p5+tL4kLLlrNY731d87dQu397+rDvfV3zt1C7f3v6se6XmmHV+SRMOn5ZTRr+waN6JVPT2kTJDZb7rbZNXGtJbHuZEZdB/wBg9ETI8esKsryBfV0muNZtlMZlIWwayXwGnjI+Hcllw7b/AL3R8Iqd5Xili60/Wl8T3KlrMT3vq7526hdv739WHe+rvnbqF2/vf1Y2J+XEjOMNSZTTS5LnNMpWskm6vhNXCkj/AHj4UqPYvkIz+QeW0yCho0OOXd3Ar0NR3ZjipUlDRIYb25x0zUZbITxJ4lfAXEW59I8V53g8yrT9aXxPMuWsw/e+rvnbqF2/vf1Yd76u+duoXb+9/VjyYzrTo5mtsihw3VnDb6zcSpaIVZfRZT6kpLdRk22s1GRF8J7dA3IVTvG8abwnVmn1yl8T3KkuU1jvfV3zt1C7f3v6se/TSBIx3XGpqYeS5TLg2GKXUmRFtcksLJpTrMyrS04SJTzhJUlL7pcSSI9lmQzA8WJfGBxzzNyH77TDLbH7fa69406dWrKUXjmcm1xXyYldKTc0my8AA4v1t/0iNdjF7KxrRygg5AcJamXrie4ruJxwug+YQ2ZKdQR9HHxJJRkfDxJ2Ue/2232e74bZaJYL39iNquDY3eeya0OzXZSc5LO+RJdbeZdXK+Q7QAcJ6Xf6SWXJuma/WHD4EOufcJCrOkJ3/ViM9iWthxS1KQXwq4FGrbfZKj6B3JX2EC2gRrWrmsTIU1lEiNIYcJbbzS0kpC0KLoUkyMjIy6DIxTYbxs14xcrPLHDTrXcXdkOxS9ti1WNK9KWRlaHinF68Gs2blWk9AAAnGugAAABKtG/KLrt9YEP8q0IqolWjflF12+sCH+VaEAVUTflBUGSZFpy2xidBIu7GtybGbwq6M8w09JZr7yDNfQ2p9xtonDZjucJLcQk1bEai33FIAASrvyai/RO1V9JYr7ZDvyai/RO1V9JYr7ZFVAAcFcu7lf696G4xhuo+Fac5Zg7jF0uBLrso9wJlbdsusmvgWmFYPy0rbNkjSpvmyInFkpZGaCPZtNdbs916vNP801B0VvdOZ6sayNCI1kojbnI7ppj7oYJRJeS2fwlzjZFsouFThbqHWV3guF5LfUuUZFidRaW+NqeXTzZkNt56vW7wc4thSiM2lK5tBGpOx7J23Ey1e8s+C+a+S/e6YYq/PN1bsLdXiM/wAAchIAHK1RpJOzbLc6sa3SzTlEleZzEt5tKkq93680G0fGw2mEZmpG2yP9bR8PTsXQfVI80Ktrq3n/c6BGi91Pqkv8y0lHOvK24nFbF4yj2LdR9J7CTZ7S7OpZOl/X1yFSeBPdITfRFz9UZPG8nMbU2yP5VbN7f/AHGl6Z4rpWWIYrqhbnHgZxazmWp+QMNIK2mWi3eB+A87wqccb40qaUwe6UIbLYkE2lSal3otKPfX7++9hiXvl5/un3Z9xY3d3Pbbc5z/AAc5xbdHFxbj2RtOtPoWWP57DwTHmMnlJND901VsJnupNJJMlSCTzii4UpLpV8BEXyC67RD7WS2scPYtGnR9YDE2EAAQSkDxYl8YHHPM3IfvtMPaJHrLrUnQDJI2ozOMWmR2MbC8gj1dXXQ3ZC5U1ybTk0lfNkfNtEZGpaz2IkpMi3WaEqzuxrzpS/y/Sy7R46Oxxp+b6sYTgMuNT3Fi9Lvp7ZuwKGrjrm2kxBHsa24rRKc5slbEp5RJaRvutaC6RwV/o/8AWHWvWf3zaa6q5xmGIXVvdTMlkSlUDxTbRt5KCVGizpBKjwmmkt8PMpZ5zhWRsONcB7foBhGm+E6cxJMXDqBmEue4T0+YtxcibYPEWxOypTqlPyXNujnHVrVtsW+w6sTjT/c/W3Uvxrmd3rsec/8AwNe6xOyGQj+x6VsuJC36UqQwUlexkpElpRdG4YRpvhOnMSTFw6gZhLnuE9PmLcXIm2DxFsTsqU8pT8lzbo5x1a1bbFvsNlAABONfv6gQvO7E/wAfgCjjXc/wqJqDjDmMzLaxqyVMhT2plebPdDD8SU1KZWnnm3Gz2cYRuSkKIy3LbpFm0U3Wozpx0tNeKPU8HifMBrPefyn6QeoX2Og9mB3n8p+kHqF9joPZg5D5PLz6Sn4y+Qn7rhqZswDWe8/lP0g9QvsdB7MDvP5T9IPUL7HQezA8nl59JT8ZfIN1w1M2YByTy49X7XkiafU12jXfOrHIMktEQa+E7DoFbR0GlUuTwe5yOMm0KQkk8SfHeb3Pbcc8aZarcvHJOUQnSbPtYMlssYbpUZc3Y4bjVKp65oHFNkxNgqeYQbjbnOo34CccT45c0a0KSTyeXn0lPxl8o3XDUz9PQEtwiNTaiuSYmJcqjPJFhCSSptXIrqSHZQiPoLuiG/VIkMH0/A42kbZ3n8p+kHqF9joPZgeTy8+kp+MvkG64ambMJ5rx/UKL51Yv+OwRne8/lP0g9QvsdB7MGPvuT/Y5NARV3mvGoUmMiVFmpR3PRI2ejPofZVumtI/FdabVtvsfDsZGRmRz7r2C3jYbdRtVScHGE4yeDljgmm8PsrOUVbTGpTlFJ50z0gPn3ibnr71C+zUXs0O8Tc9feoX2ai9mjuW+dHU/rvNZ3uq619dx9AHz7xNz196hfZqL2aHeJuevvUL7NRezQ3zo6n9d43uq619dx9AHz7xNz196hfZqL2aHeJuevvUL7NRezQ3zo6n9d43uq619dx9AHz7xNz196hfZqL2aHeJuevvUL7NRezQ3zo6n9d43uq619dx9AHz7xNz196hfZqL2aHeJuevvUL7NRezQ3zo6n9d43uq619dx9AHz7xNz196hfZqL2aHeJuevvUL7NRezQ3zo6n9d43uq619dx9AHz7xNz196hfZqL2aHeJuevvUL7NRezQ3zo6n9d43uq619dx9AHz7xNz196hfZqL2aHeJuevvUL7NRezQ3zo6n9d43uq619dx9AHz7xNz196hfZqL2aHeJuevvUL7NRezQ3zo6n9d43uq619dx9AHz7xNz196hfZqL2aHeJuevvUL7NRezQ3zo6n9d43uq619dx9AHz7xNz196hfZqL2aHeJuevvUL7NRezQ3zo6n9d43uq619dx9AHz7xNz196hfZqL2aHeJuevvUL7NRezQ3zo6n9d43uq619dx9AHz7xNz196hfZqL2aHeJuevvUL7NRezQ3zo6n9d43uq619dx9AHz7xNz196hfZqL2aHeJuevvUL7NRezQ3zo6n9d43uq619dxrjXl4xbzRyL75TiqDRC5O8xN9FyctddQvdOFDkQGH+Yo/EYfWyt1HD7ncJ8SozJ7mW5cHQZEZ75XvP5T9IPUL7HQezByXZdsVtl/wB6SttmnFRaS+02nmXVFr2mesNRWWgqU9Kx0GzANZ7z+U/SD1C+x0HswO8/lP0g9QvsdB7MGseTy8+kp+MvkJe64ambMA1nvP5T9IPUL7HQezBpVtiuewNaMV05Z17zc628xe/u5DqoNFz6X4MupZaShXudwkg02DxqI0mZmlvY07GSnk8vPpKfjL5BuuGplbAaz3n8p+kHqF9joPZgd5/KfpB6hfY6D2YHk8vPpKfjL5BuuGpmzANZ7z+U/SD1C+x0HswO8/lP0g9QvsdB7MDyeXn0lPxl8g3XDUzzK+MDiPmbkv32lFVGgYtpM5j+YsZtb6kZTk06HWS6qK3at1zbTLUl2O46oiiRGDNRqiMluozIiI9i6dxv46Xsfu6rdN3U7HWaco444Y4Z5N8qWvUQ6s1Um5IDnfRbLNWNMdHME01uuS3qRMsMTxmro5cmDaYyqM89FitsrW0blshZtmpBmk1ISrYy3Sk+guiAGZLZwVy7uV/r3objGG6j4VpzlmDuMXS4Euuyj3AmVt2y6ya+BaYVg/LSts2SNKm+bIicWSlkZoI9m011uz3Xq80/zTUHRW905nqxrI0IjWSiNucjummPuhglEl5LZ/CXONkWyi4VOFuodZXeC4Xkt9S5RkWJ1Fpb42p5dPNmQ23nq9bvBzi2FKIzaUrm0Eak7HsnbcTLV7yz4L5r5L97phir883Vuwt1eIz/AAAAchIBzBygH7hrVmO9Dt7Sqgs17PPzTJn3NYe7msjQbxtvMzud24uDud1BdKuJRK4B6tJ2joJGbY1mjjcWIcdyW6yuQ/On3KO5WUPk5KlKdkLKO4pSEINxxRE814xJ2QLVdaWYJkV8xkt3SKmTo8hEtHOS3+Y59CCQ26pjj5pS0EXiKNJmgzNSTSozM/tT6c4ZS1zFY1Td3Nxpbk9p22kO2UhMhZ7qd5+Upx01fIR8XQREktiIiGUdtp7SqeD0Jcnj9ewrylhgc5ZxIxFecRY2dStXHLCFdR2FJpH8odjtMlT8XChVYRR+e51SjVzaUuGRqMyJBmNhpVynct03sbDM73mbOihrfWsnXFR1rOOaGnnlOEttMpcYkmayPiUlaT3NwzLoabVQLF+FJmMc45XPnJjK4lFzbhoU3xdB9PiuLLY9y6f7SIeZ3F8ffkWMt+rZcetiaTMWvdRuE0WzZbmfiknpMiTtsozUXSZmKXbouKWDzLDTj4Zs2v2DKNfwj+uef/8A6vF+4RxugwOH4Rj+CwX4FAmxUmU+ciQ9Y2sqxkvOcJJ3W/KccdVslKSIjVsRERFsM8INWSlLGOjN7FgUsDxYl8YHHPM3IfvtMPaPFiXxgcc8zch++0wzOxrzpS/y/Sy5R46MxyusitsW5OGcW9G641LKC3FS42ZkpCH322XFEZdJbIcUe/8AwH5GEREWxFsRD9usxxOlzvFbXDcijqerbmI5DkoSrZXAstt0n8ii+Ej+QyIfkzrbybdTNDbyTEvaeTY0iVmcK9iR1LjSGvkUvh35le3QpC9tjI+E1J2Uec2YWK0VZU68E3FLB4cj19/7H03/AEMv27rLRtF2V5qFaUlJYvDKWCWCeuLTeGnPm5SVj9Of9HpkNtecn0odm4txuku5ddCUszP/AFckNOkRb/IlTy0l8hcOw/P7S7RXUrWO6YpsGxmVJQ44SXrB5tTUKKnfZS3HjLh2L4eFO6z22Skz6B+sujOldNoxpzUafUrypCK9s1SZSkcCpUlZ8Trpp3Ph4lGeydz2LYtz23EfYhYrRGvK0STUMMO1mR/rff12zu2ndcJqdfLUsE8XFJNNvVjjgly59RuwAA6EfMIAAAASrRvyi67fWBD/ACrQiqiVaN+UXXb6wIf5VoQBVQAAAAAAARXV7yz4L5r5L97phah+fHKH5W2mUjl74NoJk7T6scqoj1Db3EC5m1z0S1sjYW2jnYjzfEyg2IiXOJXCk3XTURG0Qh2+zO2WadCLwclgUzjlRwOnAGb8G/S/+Jmvb2+/WB4N+l/8TNe3t9+sGl8Da/SrwZG3O9ZhAGb8G/S/+Jmvb2+/WB4N+l/8TNe3t9+sDgbX6VeDG53rMIAzfg36X/xM17e336wPBv0v/iZr29vv1gcDa/SrwY3O9ZhAGb8G/S/+Jmvb2+/WB4N+l/8AEzXt7ffrA4G1+lXgxud6zCDxYl8YHHPM3IfvtMNo8G/S/wDiZr29vv1gzGIaL4Bg2Qe+mhjXS7Qobteh+yyKxsubjuraW4hCZT7iUcSmGjM0kR+IXTsMhdWxqrd9rhaZVE1HHNg+VNfuVwouMscTeAABuBIAAJllvKK01wnKiwu/jZx7ruKUlhqDgF9PblGlBLXzD0aG40+SUqI1G2pRJ6SPYyMgBTQGnvat6fx620tZF4403TWLVRNZcgyEyW5jptk0yUc2+dWpznWzRwoPjJRGncukYObyjNKK/I5+MTbG/ZeqZxV1hPVilt7lQ5Bkk+B6y7m7jb/2iNzU8REaiIzI+gAUwBpee6wYBppwIyyznIecSwpuPX1EyykOc87zLRJZiNOOKUtzckpJJmfCoyLZKjLwVmvmmNnSXV/7oXVfGx02TtGrfGrOtlRG3T2Q+uNKjtvkwfjftuDmyJDhmoiQvhAoYDTMo1g08w5u5cvbx1Kcfr2bOyOLXyZnMMPL4Gv9g2viWtX7rad3FF0kky6R/WD6tYVqHMl1lA9cxbCE2l92Bd4/YU0s2VHsTqGJzLLjjXERp5xKTTxdG+/QAOfeWpyWNJNVJFRqlqJCtL2wbvcOxaJBesXGYMSFKySGzLNttngVzjzMt1ta1KUfDwcPCaSMrlpFofg+jGI0eHYy3KnxsZROj00u2U3JmwIkp/nnIjT/AAEsmSUltJJMzPhZaJRq4EmWL5S3k6qPrAwT81VYqoA1bN9L9P8AUduMnNcTgWb0FRrhTFoNuZBWfRxxpKDS9HXsZlxtrSrYz6ekan7xdY8F8fTnUZvKa5H7tFm6lLWlPyNs2rCDkIL+1UhqWvpPp22IqqAAljev1Lj7iYWsONW+nUk1EgpluhLtO4r4N0WbJqjIIz/dS+plxXyN9B7U6NJjTY7UyHIbfYfQlxp1pZKQ4hRbkpJl0GRkZGRkP7cbbebUy82lba0mlSVFuSiP4SMvlITCTyfcVqZDtppTb2umtg6tTqyxtbbde+4Z7qN6udQuGs1GZ8ThNJdPczJxKvGICogJV77dcME8TN8EhZvVt/DcYeo2JiU/Kp2rkrPoIvlYkvLUe+zSdi32jCNV9PdRXJMTE8lZkWEJJKm1chpyHZQiPoLuiG+lEhg/+DjaQBtoAAAAAAAAAAAAAAAAAAAAAAAAAAAAAAAAAAAAAAAAAAAAAJvkHKC05x3JLXE32MysrGkebjWJUeDXlwzGecYbfS0t+FEdaJzmX2V8HHxElxBmRbkAKQAlXhLadfNzVX/CfKvZweEtp183NVf8J8q9nACqgJV4S2nXzc1V/wAJ8q9nB4S2nXzc1V/wnyr2cAKqJVkfxp9PPq/zL8RxwPCW06+bmqv+E+VezhoF1rZjEzXzDc3j4dqoulqcQyWqmSe9Zkxc3KlzaV2O3wHA41cSIUk+JKTSnm9lGRqSSgOlAEq8JbTr5uaq/wCE+Vezg8JbTr5uaq/4T5V7OAFVASrwltOvm5qr/hPlXs4PCW06+bmqv+E+VezgBVQEq8JbTr5uaq/4T5V7ODwltOvm5qr/AIT5V7OAFVAaZgWrmFak2FpUY2q9YsKZmNJmwrrHLGmktsyFPJYdJqcwytba1R30ktJGndpZb7kZDcwAEV1e8s+C+a+S/e6YWoahnOlOFaiza2yyiLaHLqWpDESRXXc2tcQ2+bRuoNUV5s1pUbDJ7K3LdBbbCHb7M7ZZp0IvByWBTOOVHA0MBm/Bv0v/AIma9vb79YHg36X/AMTNe3t9+sGl8Da/SrwZG3O9ZhAGb8G/S/8AiZr29vv1geDfpf8AxM17e336wOBtfpV4MbneswgDN+Dfpf8AxM17e336wPBv0v8A4ma9vb79YHA2v0q8GNzvWYQBm/Bv0v8A4ma9vb79YHg36X/xM17e336wOBtfpV4Mbneswg8WJfGBxzzNyH77TDaPBv0v/iZr29vv1gzGIaL4Bg2Qe+mhjXS7Qobteh+yyKxsubjuraW4hCZT7iUcSmGjM0kR+IXTsMhdWxqrd9rhaZVE1HHNg+VNfuVwouMscTeAABuBIAAAAAAAAAAAAlWjflF12+sCH+VaEVUQyss9RtMtRtUH2NCMyy2uy3Jot5XWNHPo0MmymjrISkLTNsI7qXCehPdHNmnhNBko9zIgLmAlXfk1F+idqr6SxX2yHfk1F+idqr6SxX2yAKqAlXfk1F+idqr6SxX2yHfk1F+idqr6SxX2yAKqOT8z5JfJvt+UJQYrbaQ0M2Dl+JZvdXS5La3ZUye5aUKjkKlKUb6XEnIf4FJWRtk6skcJKMhW+/JqL9E7VX0livtkYzHns+zrXjHc6uNHsowunx3Eb+pdevZtQ6qTJnTKh1lLSYE2SrYkV75qNZIIt0EW+57AWVlpLDKGEGs0tpJBGtZrUZEW3SpRmZn/AMTMzMf2AAAAAAAAAAAAAAAAAAAAACbZ1U2kzWXTC0iVsp+FX+7XdcltlSmo/ORUpRziyLZHEZbFuZbn0EKSAA5nyWkyK91ha5R0LCLY6bCnzolUztbJRPuWUqcbetW4p7KcXGNxZRv2ZrcaXKNG/PNGPHJyV+HW6zaZo0+zWwv8wu7FNMyeHWZ1stEqEy02tdgqP3G23xcXEpbxcJJUXw7EfUgADmDO9N83yCrRzDmQV1lHyzF6aLZ10JDsqPBgcCnZjaZDLrXN887IVxrbUjYiM9/ky9RGzHSy41BLMKzL9T76yjwmKS2erGlIs4LinG2YDxQ4zUWObLzrqnVmgt2nScM9i4U9EAAOQpOnOV6T6G5zpFLxu2v5jrcbIYtvUVkyb3eg5LHPRNi51znIxIJtprczOOlokEfAsirNBfHqnrJR5njWNZHBo8ZpLKHMnX2OT6V1+RKcjG2wy1OaaecSlLC1qWSDQRmguI1bkVkAASrlLeTqo+sDBPzVViqj8/v9KDrRygNAlYrk+JlUXGnt1Y1C3IVjA4vc28qrJqyYMnmlNrNEko6EmhSleLHe4eA1EY685PhasuaP43Ya42TcrN7OMqxtW24jcZEFT61Oohk2gi25htaGTMzUZqbUZqPfcAUUAAAAAAAGrZvpfp/qO3GTmuKQLN6Co1wpi0G3MgrPo440lBpejr2My421pVsZ9PSNpAASr3i6x4L4+nOozeU1yP3aLN1KWtKfkbZtWEHIQX9qpDUtfSfTtsRf03r/AEuPuJhaw41b6dSTUSO7LdCXadw/g3RZsmqMgjP91L6mXFfI30HtUx/LjbbzamXm0rbWk0qSotyUR/CRl8pAD+I0mNNjtTIcht9h9CXGnWlkpDiFFuSkmXQZGRkZGQ+ol0nk+4rUyHbTSm3tdNbB1anVlja22699wz3Up6udQuGs1GZ8ThNJdPczJxJ+MXz99uuGCeJm+CQs3q2/huMPVzExKflU7VyVn0EXysSXlqPfZpOxbgVUBzflvLz0Jw3U/B9Pbm7KPGzTuyM5Plk5DfpJzRscyxYwpCEPxUOk8oiccSnhUguJPAa3G+kAAAAAAAAAAAAAAAAAAAAAAAAAAAAAAAAAAAEq0b8ouu31gQ/yrQjeM6rspt8LvavB8hTQ5FKrpDVTZrYQ+iHMNsyZdU2tKkrSlfCZpNJ7kRkPzz5BevPKw1u5Sed45mNfT4xUUVyu5z9MSt/bP2TddHqWK/icW4TO6q9L58BEZmw+RKJJpSQH6UgAAAAAAAAAAAAAAAAAAAP4eQp1lbaHlsqWk0k4giNSDMv3i4iMty+HpIy/4GAJbjnxp9Q/q/w38RyMVUfl7o3rXy18j5dVpyf8il0Ma5q2auty/Jo9MlL0igqJMuU3JS2pSmWjmptCbJRNeLz7BpSgyUZ/qEAAAAAAAAAAAAAAAAAAAAAAAAAAAAAAAAAAAAAACHai1WpM7VGtx/T3XXM4Muc+xZWNW3XUj1XU1SFEThrNyvVJNT5oU22k5HGalOLI+Bo0lcRJ2dCbuBll1lVFr/qFVe79iVlNgsRKB1lRkSUpaJx+scf5pKEkhKTdM0lvsZGe4Aj6tXs4TqJkJo1UzxD9VnpUzFLIw9lGKJreeZQsn7Y65JNrJtbhlvPJZuE2gkqNRNq63Pfbo+ESJ7k5xH7e5ed1VzZWPX9wq7ssW/5LTXSH1KQpSDdKF3YTZqbQZpTILfYy34TMjzEK95RLl41HsdLdOWKc5PC7LYz6c7JSxxfvpYOnSlS+Hp4DdIt+jj+UAYbDrTVzKrzUrFciyqrpZsGZAbqnKmGmSmqjPR0rUlK30l3Q9txGTjjZIJSi/ZGlJpVqNXnupNHjszI0Z3OyzF8czWJC93Z0SC29c1LpIYlGo47LTPBHkvKMnmkN8RRzI+IiNSqbl+jdPl1ZmleWT5BTrzlEZufKrXWCeZSy2lsks86ytGy0J4VktKyUSlFsRHsP8rtIGy08udNMuz7IstqrmGuv47KNWRXIcZTXN80wUCJHbSSS6U8SFGR7bHsREAP7wDJb3LsxzSz900OYxVzm6OqjoQ2ZKkx0mcx/jIuI/wBq5zOxqMiOOrYiMz334a5p3gtRpnhNRgtHKnyodRHJhMmwf5+VJVualvPubFzjq1GpalbFupRmNjAAAAAAAAAAAAAAAAAAAAAAAAAAABPder7Icc02en4tdv09i/c0dciawyy64y3KtYsd00JeQts1c28si4kKIjPfboFCEv5SHkvR50Yt+PQRarycaUpLSk/ceS0M0ruTVD6QGa+jqH2cHcmqH0gM19HUPs4ZoByff28emZA2yeswvcmqH0gM19HUPs4O5NUPpAZr6OofZwzQBv7ePTMbZPWaTl+nuRZ/Vs0maavZPcwI82NYtR5dTQrQmTHdS6y4Re53wpWkj/sMtyPcjMjzncmqH0gM19HUPs4ZoA39vHpmNsnrML3Jqh9IDNfR1D7ODuTVD6QGa+jqH2cM0Ab+3j0zG2T1mF7k1Q+kBmvo6h9nDH3Fxqniz1FaFrXlFm27ktFXyIc2vpiZfjyrONHeQo2oKHC3beXsaVpMj2PcbUNY1B/o6h88sV/HYImXdfNvq2ylTnVbTlFPsbRVGpJyWc6SAAHUScc9XNzqTfak57Agat5DQ11Dcxa6FCroNUttDaqqDIUZqkQ3XFKNyQ6fSvbYyIiLYO5NUPpAZr6OofZwRPKhqr50RPwGqGaHNL3ve3ULdUp06jUU8yIVSclJpMwvcmqH0gM19HUPs4O5NUPpAZr6OofZwzQDG7+3j0zKNsnrOadZuQxivKFyssx1j1n1Lv57LZMRElKrozMVkvgQ203DJCf7TNJFuZmZ9JixYZg2cYFitXhmPcoDUH3Mp4yIkRMtqnlupaT0JSbrsBS1bF0FuZ7EREXQREN0AN/bx6Znu2T1mF7k1Q+kBmvo6h9nB3Jqh9IDNfR1D7OGaAN/bx6Znm2T1mF7k1Q+kBmvo6h9nB3Jqh9IDNfR1D7OGaAN/bx6ZjbJ6zMaC3uV2rObVeWZXNyFyhyVNfEmTY8Vl7udVZAkcCijNNNns5Id2Pg32MiMz2FTEi5P39I6oeeTX4FVCujqVgqSq2SlUm8W4xb7WkToPGKbAAAllQAAAAAAAAAABz1c3OpN9qTnsCBq3kNDXUNzFroUKug1S20NqqoMhRmqRDdcUo3JDp9K9tjIiItg7k1Q+kBmvo6h9nBE8qGqvnRE/AaoZoc0ve97dQt1SnTqNRTzIhVJyUmkzC9yaofSAzX0dQ+zg7k1Q+kBmvo6h9nDNAMbv7ePTMo2yeswvcmqH0gM19HUPs4YPH9PcixW0vbvHNXsnrp+TzU2NvIYqaFK5klLSGicWfud0nwNpL+zfiP4VKM92AN/bx6ZjbJ6zC9yaofSAzX0dQ+zg7k1Q+kBmvo6h9nDNAG/t49Mxtk9Zhe5NUPpAZr6OofZwdyaofSAzX0dQ+zhmgDf28emY2yeszGgt7ldqzm1XlmVzchcoclTXxJk2PFZe7nVWQJHAoozTTZ7OSHdj4N9jIjM9hUxIuT9/SOqHnk1+BVQro6lYKkqtkpVJvFuMW+1pE6DximwAAJZUcs6dW2ruXafYxldlr3lzcu6poVjIQxWUZNpceYQ4okEdeZkkjUe25me3ymNh7k1Q+kBmvo6h9nDCaI+RjAfNeq+6NjdRym033eEK04xqvBN+8gOpPHSYXuTVD6QGa+jqH2cHcmqH0gM19HUPs4ZoBY39vHpmebZPWaTE09yKBmFjqBD1eydnI7aFHrptkipoSffjMKWpptSvc74CNxX/E/FI9ySnbOdyaofSAzX0dQ+zhmgDf28emY2yeswvcmqH0gM19HUPs4O5NUPpAZr6OofZwzQBv7ePTMbZPWarcXGqeLPUVoWteUWbbuS0VfIhza+mJl+PKs40d5CjagocLdt5expWkyPY9x0qObdQf6OofPLFfx2COkhvexi11rZY5VK8sp5TWfVhElUJOUc4AAGxF4AAAAAAAAAAAAAAAAAAAAAAAAAAAAAAAAAAAAAAAAAAAAAAAAAAAAAAAAAAAAAAAAAACX8pDyXo86MW/HoIqAl/KQ8l6POjFvx6CLFp+4n2P3HktDMIAAOJmNI5yjZNklWCVkGFllgzY5CpiVXYzdqqpsxsoUhZIJ8pMYiIlJSsyN5JHw/KfQel0K80yDT65iYhLyGvjO5QUSPjmQ5e4m/WxHb/wBdgpsOefdZeWptbrZE+Z8Gxk40he6OhbXG6W7nVVlaQuekUkpU2AvnFp5l421tGrZJkSvEcWWyty6d9tyIxh7fTDCLxy2fn1LxPXTjD8t6NOkRnCfZTwtPtLaWlTDyU+LzrRocMiIjUZEW2QpWuEKag1o9+OrFcnLp5MStSwWBI4Gp9bpbil9FuMltcZfXaRoFbXag2zTztO5IaNXG7YqlPpkMGSXHkkp9Si4TaIy8VKdOx7MbfOtNMHYpc/vsxfbq7d+adFfKYmuSWpCUMzn5DLjaVtNGrx4/GfGSy4WXeEkF0xh+CYzgkSREx2LLJUx3n5UqdYSJ8uSvYiI3ZMlbjzmySJKeJZ8KSIi2IthhbPRPTi1p62ieqJ8WLUk8iIqvuZsF9LbyjU60p9h5DrjS1HuptajQZkndPiltcjbKCbbi8cccc2prRp0/3Y8reIykSbJp2bSZFJqpbsT8gwipxqrmSbCnzSwpuffNalyZDUCMSUzOjmzNuQbRcPipJRmpJdIpUS0ktPwKLcujYaZO0c06nz66e5QuMlWNsMtRIk+TGhOoY/2KX4jTiWJBN7Fwc8hfDsW2w3QRbRWhVUVFaPrW+/DDsPG8QNY1B/o6h88sV/HYI2caxqD/AEdQ+eWK/jsEXbq/H0Pzx/UhDjI6SAAHZDInPUTyoaq+dET8BqhmhhYnlQ1V86In4DVDNDkV++ca3aQKnHYGs6m387FtPshyOtfr2JNdXvSG3Z8hbDDfCnc1LWhtxSdi3Mtm19O3QY2YeS1gKtK6RXJny4XdCDbN+IskPII/h4FGR8J7bluXSW+5GR7GWMg0pJy0FCOfafGIucYHieS25ZljMx+xh1a6ytyDIaRuPHNzxmltm5GKQ4fEo1SiZRzhnunoIjP3awxLmhcqm6C8zqjj44wVZSWMImLR6ZaSyJtpt9dg1JcWjpbRz2xmRur4lpSlZjbbLQdLqmWcb1VzPGoDD7MxMOAirk8cpsi2kOyJsJ+S+6rhI1LdeWajLpGzVmnsdi0rbzIsmucmn1DHNQ3bQ46UtOHxEuQTUZlprnlJVwcfBulJGSOEluceRdpgpKeVis+Z48vasOrl7yvFGtaU3N3GvcnobahkKjO5BMVGtmFE6064lDZuIfSSSNhe5KNPQptREXjkoyQKiMZR4/Cx/wB0O43Xl+6U52wd51RHwuObcRJ2Itk9Bbb7n/xGTECtNVJ5UUUN4gAAWjw93J+/pHVDzya/AqoV0SLk/f0jqh55NfgVUK6Oy3Z+Bo/kj+lGQp8VAAATisAAAAAAAAAAA56ieVDVXzoifgNUM0MLE8qGqvnRE/AaoZociv3zjW7SBU47Oe9fcAXk2dY1Nf0D0oyw5Ni1EYsMhnmibJSmNIWcdxPuY/wsp8ZRftFFuReKW+5YHCNO5uLvah2ELk8ab4yptMiIqbh90bFmwSoUdXMR3CiV+zZnwrNXdcfZRqPcjIlH0SrFYD2UpyyZJlSpUdjmITLy0mxCJX+0W0giLx1lsSlqNSti4UmkjMj8dtg0eyqMkqod9aVa8mWbkiXE5hTzBmy2yfNE80tst0Nl++hXSZn/AGbW4W3JgqXJguWWvVj+x4pch+dDeTQGrNKWtRK5FUhRzksJz9oklYG6azkE37/N+cMzM+c5zfcz8Xfxh0zKsc+gZ1jU2hyXIoDcPD3EFHu3oT9ZFlGlhR92ytpUpTJpNpxTiZjxmtTaedSk1qPeXuTRKkHxPa/akKPnFO/7ChLxlRe5TP8Aoz+B4n/3/e6RuDmlSHMdhUZ5xkHdUGodpUWima9yQuO4po1GttcU4ylcLKUdLPDwmrcjM9ynWm8aVXJ0PTrenlzr+SqU0yTYWWdsM5LCnpwco78KTJu40m6n2pSZTC1tyJbm8CMbBqU3zfAklJUREtsiJk0u6HT19RXZlaZTQ01dDskypZe67EZCbJRuOWBKS7MUkpTm6GWOh1W/iEexHuL3T6CFXP3K7HVXL7iNfxO47CJKiUzLTyCSaUn/AKrAaWRkSlF0K2Pc9yPoGYRo9RQ33rmkurepySUhbcvIoxx1z5aVJMkpe51pbK0NmZKbbNvgbMtkJSk1JOxuylBywenVjh345/f8GUjJaWeT+l//ALB//wC6htQxmM0EfF6CBj0WXJlNwGUsk/JNHOumXwrXwJSniM9zPhSkunoIi6BkxiajUptrWW2e7k/f0jqh55NfgVUK6JFyfv6R1Q88mvwKqFdHYrs/A0fyR/SifT4qAAAnFZy/oj5GMB816r7o2N1GlaI+RjAfNeq+6NjdRxS1/iJ9r95jXpOX86y1y11EyKoLLcSKfU3UJsq+NkxNyua5ozQ5JMmDegpaJSj4kE4nikLVuZlwlpFXnmTPaZ5RY5LLh4+RZVGadVJz+zpW+ZXZK5xSpCYEY4zK+MyOS1zhrPdtRNmg20dL5vo3XZ3z71jmWURZTkhp6O4xKZcZipbVxJbRDfaciKLfi3W4ytwyUZcexERevD9NX8ZW+Vznt3lcd14pTca3r6lpqPJ5znDkI7jhMHzpqPc1KNXT09B9IyMbZQjTWbOsM2fHNqzcvXo8CvKSRx3iuZY+zk9uqpz7EClv5PXFGKFyiLuwfeJSYiTJmKtskWW/jJ2dMtz4mz8VBD36u2cG35UFpWYjV4rOzmP0NQbS3YrJCmShLbNxLsukJ5SDbNWzcWwcTv45p4Oc26ovtJZ9pdWtrSas5jjTF2pLk+BVt1a2HXCaS0ayVJhPPIM0IQR8LhEW25ER7mPk7oLhLt21fpsMlZfYU0bcdq9kohETcXuZJHDJfc6z5vp41tqXvtsoiIiK8rxs6ltjT4uGlvPm044Zs3Iz1TWkgfIEu8bedyykxqRjs4o5tFMkUaNmGFNqWlplao9NBiPOEhR8T6HXlO8PEnxNtuwxpun2lON6aHJ971hkMopceNGcO4u5VmoksEsk8C5K1qQR8Z7oSZIL/dSnc99yGNt9enabRKrTTSeGnsKJtN4o1jUH+jqHzyxX8dgjpIc26g/0dQ+eWK/jsEdJDfNh/wCAl+d/piSrPxWAABtRfAAAAAAAAAAAAAAAAAAAAAAAAAAAAAAAAAAAAAAAAAAAAAAAAAAAAAAAAAAAAAAAAAAAl/KQ8l6POjFvx6CKgIRy4rmyxzkxZZkNNJ7nsKuVTTYj3AlfNvN20RaFcKiNJ7KSR7GRkfykLdWDqU5QWlpo8loPYA/MPwy+Ul1j/wAngeoDwy+Ul1j/AMngeoHPuBlv58PGXykLaZH6eAPzD8MvlJdY/wDJ4HqA8MvlJdY/8ngeoDgZb+fDxl8o2mR+ngD8w/DL5SXWP/J4HqA8MvlJdY/8ngeoDgZb+fDxl8o2mR+ngD8w/DL5SXWP/J4HqA8MvlJdY/8AJ4HqA4GW/nw8ZfKNpkfp4NY1B/o6h88sV/HYI/Orwy+Ul1j/AMngeoG0aUcpjW7UHV3T3EMvzXu+on5lQ90R/c2I1x8Fiw4nxm2kqLZaEn0GXwbfAJVi2JW2zWmnWnKGEZJvBvkePNKo0mmmfr+AAN7Jhz1E8qGqvnRE/AaoZocQcrzX/VvSrlO6hY9gWWe5dfIlVs1xnuCM/wATyqmEg1cTralF4raC2I9uj4OkxIvDL5SXWP8AyeB6gaReWxW2W21TtFOUUpPHO3j+kiTptybP08AfmH4ZfKS6x/5PA9QHhl8pLrH/AJPA9QIPAy38+HjL5SjaZH6eAPzD8MvlJdY/8ngeoDwy+Ul1j/yeB6gOBlv58PGXyjaZH6eAPzD8MvlJdY/8ngeoDwy+Ul1j/wAngeoDgZb+fDxl8o2mR+ngD8w/DL5SXWP/ACeB6gPDL5SXWP8AyeB6gOBlv58PGXyjaZH6lcn7+kdUPPJr8CqhXRyn/o5szyXUHSLLMvy+y7vt5+ZP90SOZba4+CugNp8VtKUlshCS6CL4N/hHVg32yUZWaz06M9MYpPDqSRMgsIpAAASCoAAAAAAAAAAA56ieVDVXzoifgNUM0OIOV5r/AKt6Vcp3ULHsCyz3Lr5EqtmuM9wRn+J5VTCQauJ1tSi8VtBbEe3R8HSYkXhl8pLrH/k8D1A0i8titsttqnaKcopSeOdvH9JEnTbk2fp4A/MPwy+Ul1j/AMngeoDwy+Ul1j/yeB6gQeBlv58PGXylG0yP08AfmH4ZfKS6x/5PA9QHhl8pLrH/AJPA9QHAy38+HjL5RtMj9PAH5h+GXykusf8Ak8D1AeGXykusf+TwPUBwMt/Ph4y+UbTI/TwB+Yfhl8pLrH/k8D1AeGXykusf+TwPUBwMt/Ph4y+UbTI/Urk/f0jqh55NfgVUK6OU/wDRzZnkuoOkWWZfl9l3fbz8yf7okcy21x8FdAbT4raUpLZCEl0EXwb/AAjqwb7ZKMrNZ6dGemMUnh1JImQWEUgAAJBUcv6I+RjAfNeq+6NjdR+W1JyseUBjlLAx6mz7uevq4rUKIz7lQl82y2gkITxKZNR7JSRbmZmfymPb4ZfKS6x/5PA9QOf19h9uqVZTU4YNt6X8pCdKR+ngD8w/DL5SXWP/ACeB6gPDL5SXWP8AyeB6gWuBlv58PGXynm0yP08AfmH4ZfKS6x/5PA9QHhl8pLrH/k8D1AcDLfz4eMvlG0yP08AfmH4ZfKS6x/5PA9QHhl8pLrH/AJPA9QHAy38+HjL5RtMj9FdQf6OofPLFfx2COkh+QGlHKY1u1B1d09xDL817vqJ+ZUPdEf3NiNcfBYsOJ8ZtpKi2WhJ9Bl8G3wD9fxtlxXZWumzOjWabcm82OpLlS1EmjFxWDAAAzJdAAAAAAAAAAAAAAAAAAAAAAAAAA//Z;" vertex="1" parent="1">
          <mxGeometry width="762" height="571" as="geometry" />
        </mxCell>
      </root>
    </mxGraphModel>
  </diagram>
</mxfile>
